<?xml version="1.0" encoding="iso-8859-1"?>
<!-- Generator: Adobe Illustrator 19.0.0, SVG Export Plug-In . SVG Version: 6.00 Build 0)  -->
<svg version="1.1" id="Layer_1" xmlns="http://www.w3.org/2000/svg" xmlns:xlink="http://www.w3.org/1999/xlink" x="0px" y="0px"
	 viewBox="0 0 512 512" style="enable-background:new 0 0 512 512;" xml:space="preserve">
<g>
	<g>
		<path d="M407,60h-51.728L329.418,8.291C327.085,3.605,321.015,0,316,0H136c-4.922,0-11.021,3.477-13.418,8.291L95.728,60H45
			C20.186,60,0,80.186,0,105v302c0,24.814,20.186,45,45,45c116.505,0,222.356,0,362,0c24.814,0,45-20.186,45-45V105
			C452,80.186,431.814,60,407,60z M122.758,75l15.791-31.582c41.483,55.299,26.133,34.834,67.643,90.179l-36.09,36.075L122.758,75z
			 M183.285,422l25.723-180h33.984l25.723,180H183.285z M281.898,169.673l-36.09-36.075c41.478-55.303,26.128-34.839,67.643-90.18
			L329.242,75L281.898,169.673z"/>
	</g>
</g>
<g>
	<g>
		<polygon points="326.182,482 245.818,482 243.285,512 328.715,512 		"/>
	</g>
</g>
<g>
	<g>
		<path d="M62.763,482c6.213,17.422,23.707,30,43.237,30h106.375l2.86-30H62.763z"/>
	</g>
</g>
<g>
	<g>
		<path d="M482,122.763V407c0,41.353-33.633,75-75,75h-50.235l2.86,30H467c24.814,0,45-20.186,45-45V165
			C512,145.47,499.422,128.976,482,122.763z"/>
	</g>
</g>
<g>
</g>
<g>
</g>
<g>
</g>
<g>
</g>
<g>
</g>
<g>
</g>
<g>
</g>
<g>
</g>
<g>
</g>
<g>
</g>
<g>
</g>
<g>
</g>
<g>
</g>
<g>
</g>
<g>
</g>
</svg>
