<?xml version="1.0" encoding="iso-8859-1"?>
<!-- Generator: Adobe Illustrator 19.0.0, SVG Export Plug-In . SVG Version: 6.00 Build 0)  -->
<svg version="1.1" id="Capa_1" xmlns="http://www.w3.org/2000/svg" xmlns:xlink="http://www.w3.org/1999/xlink" x="0px" y="0px"
	 viewBox="0 0 512 512" style="enable-background:new 0 0 512 512;" xml:space="preserve">
<path style="fill:#303C42;" d="M424.991,111.936l0.155-0.092l-64-106.667C359.219,1.969,355.75,0,352,0H74.667
	c-3.75,0-7.219,1.969-9.146,5.177l-64,106.667l0.155,0.092C0.707,113.543,0,115.319,0,117.333V416
	c0,5.896,4.771,10.667,10.667,10.667H416c5.896,0,10.667-4.771,10.667-10.667V117.333
	C426.667,115.319,425.96,113.543,424.991,111.936z"/>
<polygon style="fill:#8A7067;" points="397.16,106.667 275.41,106.667 258.344,21.333 345.958,21.333 "/>
<rect x="170.56" y="128" style="fill:#FBC02D;" width="85.333" height="42.667"/>
<polygon style="fill:#FCCD57;" points="173.01,106.667 190.077,21.333 236.607,21.333 253.845,106.667 "/>
<polygon style="fill:#8A7067;" points="80.708,21.333 168.348,21.333 151.447,106.667 29.507,106.667 "/>
<path style="fill:#6D4C41;" d="M405.333,405.333h-384V128h128v53.333c0,5.896,4.771,10.667,10.667,10.667h106.667
	c5.896,0,10.667-4.771,10.667-10.667L277.165,128h128.168V405.333z"/>
<linearGradient id="SVGID_1_" gradientUnits="userSpaceOnUse" x1="-41.2031" y1="644.9844" x2="-25.7031" y2="629.4844" gradientTransform="matrix(21.3333 0 0 -21.3333 996.3334 13791.667)">
	<stop  offset="0" style="stop-color:#000000;stop-opacity:0.1"/>
	<stop  offset="1" style="stop-color:#000000;stop-opacity:0"/>
</linearGradient>
<path style="fill:url(#SVGID_1_);" d="M405.333,405.333V128H277.165l0.168,53.333c0,5.896-4.771,10.667-10.667,10.667H160
	c-5.896,0-10.667-4.771-10.667-10.667V128h-128l277.333,277.333H405.333z"/>
<circle style="fill:#303C42;" cx="394.667" cy="394.667" r="117.333"/>
<circle style="fill:#7CB342;" cx="394.667" cy="394.667" r="96"/>
<path style="fill:#303C42;" d="M440.458,355.125l-67.125,67.125l-24.458-24.458c-4.167-4.167-10.917-4.167-15.083,0
	c-4.167,4.167-4.167,10.917,0,15.083l32,32c2.083,2.083,4.813,3.125,7.542,3.125s5.458-1.042,7.542-3.125l74.667-74.667
	c4.167-4.167,4.167-10.917,0-15.083C451.375,350.958,444.625,350.958,440.458,355.125z"/>
<linearGradient id="SVGID_2_" gradientUnits="userSpaceOnUse" x1="-46.9486" y1="640.5625" x2="-21.7492" y2="628.8113" gradientTransform="matrix(21.3333 0 0 -21.3333 996.3334 13791.667)">
	<stop  offset="0" style="stop-color:#FFFFFF;stop-opacity:0.2"/>
	<stop  offset="1" style="stop-color:#FFFFFF;stop-opacity:0"/>
</linearGradient>
<path style="fill:url(#SVGID_2_);" d="M426.667,281.882V117.333c0-2.014-0.707-3.79-1.676-5.397l0.155-0.092l-64-106.667
	C359.219,1.969,355.75,0,352,0H74.667c-3.75,0-7.219,1.969-9.146,5.177l-64,106.667l0.155,0.092C0.707,113.543,0,115.319,0,117.333
	V416c0,5.896,4.771,10.667,10.667,10.667h271.215C295.858,475.84,341.073,512,394.667,512C459.365,512,512,459.365,512,394.667
	C512,341.073,475.84,295.858,426.667,281.882z"/>
<g>
</g>
<g>
</g>
<g>
</g>
<g>
</g>
<g>
</g>
<g>
</g>
<g>
</g>
<g>
</g>
<g>
</g>
<g>
</g>
<g>
</g>
<g>
</g>
<g>
</g>
<g>
</g>
<g>
</g>
</svg>
