<?xml version="1.0" encoding="iso-8859-1"?>
<!-- Generator: Adobe Illustrator 19.0.0, SVG Export Plug-In . SVG Version: 6.00 Build 0)  -->
<svg version="1.1" id="Capa_1" xmlns="http://www.w3.org/2000/svg" xmlns:xlink="http://www.w3.org/1999/xlink" x="0px" y="0px"
	 viewBox="0 0 491.52 491.52" style="enable-background:new 0 0 491.52 491.52;" xml:space="preserve">
<circle style="fill:#334D5C;" cx="245.76" cy="245.76" r="245.76"/>
<path style="opacity:0.1;enable-background:new    ;" d="M487.317,290.863L386.355,189.901l0.205-0.204l-77.158-76.749
	l-22.63,22.784l-30.925-30.771L116.685,244.582h-3.072c-4.813,0-8.653,3.84-8.653,8.601v124.775c0,2.509,1.075,4.761,2.765,6.298
	l104.989,104.989c10.816,1.455,21.832,2.275,33.047,2.275C366.075,491.52,466.128,405.039,487.317,290.863z"/>
<rect x="112.032" y="164.665" transform="matrix(0.706 -0.7083 0.7083 0.706 -90.7852 219.466)" style="fill:#3EA69B;" width="213.773" height="108.807"/>
<path style="fill:#44C4A1;" d="M171.122,311.332l-44.29-44.147c5.989-6.008,5.973-15.734-0.035-21.722l118.247-118.631
	c6.008,5.989,15.734,5.973,21.722-0.035l44.29,44.147c-5.989,6.008-5.973,15.734,0.035,21.722L192.845,311.297
	C186.836,305.308,177.111,305.324,171.122,311.332z"/>
<g>
	
		<ellipse transform="matrix(-0.706 0.7083 -0.7083 -0.706 528.6361 218.6102)" style="fill:#3EA69B;" cx="218.938" cy="219.041" rx="29.322" ry="37.122"/>
	<ellipse style="fill:#3EA69B;" cx="277.54" cy="160.26" rx="6.636" ry="6.636"/>
	<ellipse style="fill:#3EA69B;" cx="160.3" cy="277.87" rx="6.636" ry="6.636"/>
</g>
<path style="fill:#44C4A1;" d="M238.994,241.287l-3.728-3.716c-5.128,4.193-11.16,6.533-18.089,7.017l-0.727-8.157
	c5.336-0.382,9.749-1.85,13.251-4.408l-9.909-9.877c-4.755,2.933-8.773,4.546-12.053,4.839c-3.28,0.294-6.392-1.027-9.337-3.962
	c-2.945-2.935-4.33-6.363-4.15-10.293c0.182-3.928,1.834-7.626,4.957-11.1l-2.554-2.546l3.256-3.267l2.604,2.595
	c4.007-3.471,8.813-5.741,14.421-6.804l1.389,8.004c-3.841,0.654-7.252,2.101-10.242,4.349l9.601,9.57l0.153-0.154
	c4.823-2.998,8.933-4.635,12.329-4.912c3.402-0.279,6.591,1.068,9.569,4.037c2.98,2.97,4.355,6.446,4.121,10.421
	c-0.23,3.98-1.99,7.786-5.283,11.43l3.676,3.664L238.994,241.287z M202.437,212.032c-0.101,1.631,0.422,3.014,1.563,4.151
	s2.383,1.695,3.725,1.675c1.34-0.015,3.271-0.675,5.785-1.972l-8.836-8.808C203.282,208.748,202.536,210.399,202.437,212.032z
	 M235.549,223.601c0.167-1.731-0.343-3.193-1.536-4.382c-1.191-1.187-2.509-1.755-3.953-1.703c-1.448,0.056-3.495,0.8-6.142,2.23
	l9.192,9.162C234.569,227.107,235.379,225.338,235.549,223.601z"/>
<rect x="165.75" y="172.693" transform="matrix(0.7051 -0.7091 0.7091 0.7051 -80.635 260.291)" style="fill:#3EA69B;" width="213.759" height="108.799"/>
<path style="fill:#44C4A1;" d="M224.918,319.438l-44.346-44.091c5.981-6.016,5.953-15.741-0.063-21.722l118.097-118.78
	c6.016,5.981,15.741,5.953,21.722-0.063l44.346,44.091c-5.981,6.016-5.953,15.741,0.063,21.722L246.64,319.375
	C240.624,313.394,230.899,313.422,224.918,319.438z"/>
<g>
	
		<ellipse transform="matrix(-0.7051 0.7091 -0.7091 -0.7051 625.9673 193.8938)" style="fill:#3EA69B;" cx="272.666" cy="227.108" rx="29.32" ry="37.12"/>
	<ellipse style="fill:#3EA69B;" cx="331.17" cy="168.25" rx="6.636" ry="6.636"/>
	<ellipse style="fill:#3EA69B;" cx="214.07" cy="285.99" rx="6.636" ry="6.636"/>
</g>
<path style="fill:#44C4A1;" d="M292.702,249.308l-3.733-3.711c-5.123,4.2-11.152,6.547-18.08,7.04l-0.737-8.156
	c5.335-0.389,9.746-1.862,13.245-4.424l-9.921-9.864c-4.751,2.939-8.767,4.557-12.047,4.854c-3.279,0.298-6.393-1.019-9.342-3.95
	c-2.948-2.931-4.338-6.357-4.163-10.287c0.177-3.928,1.825-7.628,4.943-11.106l-2.557-2.543l3.252-3.271l2.607,2.592
	c4.003-3.476,8.805-5.752,14.413-6.822l1.399,8.003c-3.841,0.658-7.249,2.11-10.237,4.362l9.613,9.558l0.153-0.154
	c4.819-3.004,8.927-4.646,12.323-4.928c3.402-0.284,6.593,1.06,9.574,4.024c2.984,2.967,4.363,6.44,4.134,10.416
	c-0.225,3.98-1.98,7.788-5.268,11.437l3.681,3.66L292.702,249.308z M256.107,220.098c-0.099,1.631,0.426,3.013,1.568,4.149
	s2.385,1.692,3.727,1.67c1.34-0.016,3.27-0.68,5.783-1.979l-8.847-8.797C256.949,216.814,256.204,218.465,256.107,220.098z
	 M289.234,231.626c0.165-1.731-0.347-3.192-1.542-4.38c-1.192-1.185-2.511-1.752-3.955-1.698c-1.448,0.058-3.494,0.805-6.139,2.238
	l9.203,9.15C288.258,235.133,289.066,233.363,289.234,231.626z"/>
<path style="fill:#EBF0F3;" d="M311.533,244.588H113.588c-4.765,0-8.628,3.857-8.628,8.615v124.741c0,4.758,3.863,8.615,8.628,8.615
	h197.945c4.766,0,8.628-3.857,8.628-8.615V253.203C320.161,248.445,316.299,244.588,311.533,244.588z"/>
<path style="fill:#FCD462;" d="M150.681,261.927h-28.352c-1.56,0-2.824,1.263-2.824,2.82v28.312c0,1.558,1.264,2.82,2.824,2.82
	h28.352c1.559,0,2.824-1.262,2.824-2.82v-28.312C153.504,263.19,152.24,261.927,150.681,261.927z"/>
<ellipse style="fill:#E56353;" cx="286.44" cy="273.97" rx="17.239" ry="17.213"/>
<ellipse style="fill:#27A2DB;" cx="263.99" cy="273.97" rx="17.239" ry="17.213"/>
<g>
	<rect x="119.51" y="315.44" style="fill:#64798A;" width="56.04" height="6.845"/>
	<rect x="119.51" y="360.5" style="fill:#64798A;" width="25.22" height="6.845"/>
	<rect x="165.02" y="360.55" style="fill:#64798A;" width="25.22" height="6.845"/>
	<rect x="210.48" y="360.6" style="fill:#64798A;" width="25.22" height="6.845"/>
	<rect x="255.99" y="360.6" style="fill:#64798A;" width="25.22" height="6.845"/>
	<rect x="119.51" y="340.02" style="fill:#64798A;" width="84.21" height="6.845"/>
</g>
<g>
</g>
<g>
</g>
<g>
</g>
<g>
</g>
<g>
</g>
<g>
</g>
<g>
</g>
<g>
</g>
<g>
</g>
<g>
</g>
<g>
</g>
<g>
</g>
<g>
</g>
<g>
</g>
<g>
</g>
</svg>
