<?xml version="1.0" encoding="iso-8859-1"?>
<!-- Generator: Adobe Illustrator 19.0.0, SVG Export Plug-In . SVG Version: 6.00 Build 0)  -->
<svg version="1.1" id="Layer_1" xmlns="http://www.w3.org/2000/svg" xmlns:xlink="http://www.w3.org/1999/xlink" x="0px" y="0px"
	 viewBox="0 0 512 512" style="enable-background:new 0 0 512 512;" xml:space="preserve">
<circle style="fill:#F1333F;" cx="256" cy="256" r="256"/>
<path style="fill:#AE283F;" d="M512,256.002c0-2.72-0.057-5.427-0.141-8.127l-120.48-120.482l-10.183,8.276l-22-22L241.7,249.054
	L106.313,113.669L60.335,351.554l157.629,157.629c12.41,1.85,25.109,2.817,38.035,2.817C397.384,512,512,397.386,512,256.002z"/>
<rect x="60.335" y="131.965" style="fill:#175D76;" width="331.042" height="219.591"/>
<rect x="224.97" y="131.965" style="fill:#00263F;" width="166.409" height="219.591"/>
<rect x="78.727" y="131.965" style="fill:#FFFFFF;" width="294.253" height="195.181"/>
<rect x="224.97" y="131.965" style="fill:#E0E0E0;" width="148.015" height="195.181"/>
<rect x="60.335" y="127.393" style="fill:#FFCF35;" width="331.042" height="36.599"/>
<rect x="224.97" y="127.393" style="fill:#FFB344;" width="166.409" height="36.599"/>
<rect x="340.799" y="113.669" style="fill:#E0E0E0;" width="18.391" height="36.599"/>
<rect x="87.919" y="113.669" style="fill:#FFFFFF;" width="18.391" height="36.599"/>
<rect x="336.213" y="204.007" style="fill:#C0C0C0;" width="27.582" height="27.448"/>
<g>
	<rect x="336.213" y="245.191" style="fill:#E0E0E0;" width="27.582" height="27.448"/>
	<rect x="336.213" y="286.358" style="fill:#E0E0E0;" width="27.582" height="27.448"/>
</g>
<g>
	<rect x="294.822" y="204.007" style="fill:#C0C0C0;" width="27.582" height="27.448"/>
	<rect x="294.822" y="245.191" style="fill:#C0C0C0;" width="27.582" height="27.448"/>
</g>
<rect x="294.822" y="286.358" style="fill:#E0E0E0;" width="27.582" height="27.448"/>
<g>
	<rect x="253.449" y="204.007" style="fill:#C0C0C0;" width="27.582" height="27.448"/>
	<rect x="253.449" y="245.191" style="fill:#C0C0C0;" width="27.582" height="27.448"/>
	<rect x="253.449" y="286.358" style="fill:#C0C0C0;" width="27.582" height="27.448"/>
</g>
<rect x="212.058" y="204.007" style="fill:#E0E0E0;" width="27.583" height="27.448"/>
<rect x="224.97" y="204.007" style="fill:#C0C0C0;" width="14.681" height="27.448"/>
<rect x="212.058" y="245.191" style="fill:#E0E0E0;" width="27.583" height="27.448"/>
<rect x="224.97" y="245.191" style="fill:#C0C0C0;" width="14.681" height="27.448"/>
<rect x="212.058" y="286.358" style="fill:#E0E0E0;" width="27.583" height="27.448"/>
<rect x="224.97" y="286.358" style="fill:#C0C0C0;" width="14.681" height="27.448"/>
<g>
	<rect x="170.684" y="204.007" style="fill:#E0E0E0;" width="27.582" height="27.448"/>
	<rect x="170.684" y="245.191" style="fill:#E0E0E0;" width="27.582" height="27.448"/>
	<rect x="170.684" y="286.358" style="fill:#E0E0E0;" width="27.582" height="27.448"/>
	<rect x="129.31" y="204.007" style="fill:#E0E0E0;" width="27.582" height="27.448"/>
	<rect x="129.31" y="245.191" style="fill:#E0E0E0;" width="27.582" height="27.448"/>
	<rect x="129.31" y="286.358" style="fill:#E0E0E0;" width="27.582" height="27.448"/>
	<rect x="87.919" y="204.007" style="fill:#E0E0E0;" width="27.582" height="27.448"/>
	<rect x="87.919" y="245.191" style="fill:#E0E0E0;" width="27.582" height="27.448"/>
	<rect x="87.919" y="286.358" style="fill:#E0E0E0;" width="27.582" height="27.448"/>
</g>
<path style="fill:#FFCF35;" d="M436.71,251.504l3.282-4.358l7.483,5.637l10.093-13.398l-28.369-21.37l-10.093,13.398l7.485,5.639
	l-3.255,4.32c-9.463-5.984-20.015-10.387-31.303-12.84c1.502-3.069,2.367-6.501,2.367-10.14c0-12.786-10.402-23.188-23.188-23.188
	c-12.786,0-23.188,10.402-23.188,23.188c0,3.639,0.867,7.071,2.367,10.14c-43.944,9.544-76.866,48.638-76.866,95.441
	c0,53.951,43.735,97.687,97.687,97.687s97.689-43.735,97.689-97.687C468.901,295.226,456.476,269.379,436.71,251.504z
	 M361.839,218.395c0-5.168,4.205-9.375,9.375-9.375c5.168,0,9.375,4.205,9.375,9.375c0,3.413-1.852,6.377-4.586,8.014
	c-1.588-0.076-3.182-0.121-4.789-0.121c-1.605,0-3.201,0.045-4.789,0.121C363.692,224.77,361.839,221.808,361.839,218.395z"/>
<path style="fill:#FFB344;" d="M436.71,251.504l3.282-4.358l7.483,5.637l10.093-13.398l-28.369-21.37l-10.092,13.398l7.485,5.639
	l-3.255,4.32c-9.463-5.984-20.015-10.388-31.303-12.84c1.502-3.069,2.367-6.501,2.367-10.14c0-12.786-10.402-23.188-23.188-23.188
	c-0.291,0-0.574,0.033-0.862,0.043v13.815c0.284-0.026,0.571-0.043,0.862-0.043c5.168,0,9.375,4.205,9.375,9.375
	c0,3.413-1.852,6.377-4.586,8.014c-1.588-0.076-3.182-0.121-4.789-0.121c-0.29,0-0.574,0.019-0.862,0.022v195.332
	c0.288,0.002,0.572,0.021,0.862,0.021c53.951,0,97.689-43.735,97.689-97.687C468.901,295.226,456.476,269.381,436.71,251.504z"/>
<circle style="fill:#FFFFFF;" cx="371.209" cy="323.974" r="77.459"/>
<path style="fill:#E0E0E0;" d="M371.214,246.517c-0.29,0-0.574,0.019-0.862,0.022v154.876c0.288,0.003,0.572,0.022,0.862,0.022
	c42.78,0,77.46-34.68,77.46-77.46S413.992,246.517,371.214,246.517z"/>
<path style="fill:#FF9451;" d="M357.157,323.793c0-4.455,4.884-32.82,8.737-54.505c0.91-5.12,8.258-5.12,9.168,0
	c3.853,21.685,8.737,50.05,8.737,54.505c0,7.358-5.965,13.321-13.321,13.321S357.157,331.15,357.157,323.793z"/>
<path style="fill:#F7674F;" d="M375.062,269.288c-0.465-2.62-2.615-3.882-4.727-3.82v71.639c0.048,0.002,0.095,0.007,0.143,0.007
	c7.358,0,13.321-5.963,13.321-13.321C383.798,319.338,378.914,290.975,375.062,269.288z"/>
<g>
</g>
<g>
</g>
<g>
</g>
<g>
</g>
<g>
</g>
<g>
</g>
<g>
</g>
<g>
</g>
<g>
</g>
<g>
</g>
<g>
</g>
<g>
</g>
<g>
</g>
<g>
</g>
<g>
</g>
</svg>
