<?xml version="1.0" encoding="iso-8859-1"?>
<!-- Generator: Adobe Illustrator 17.1.0, SVG Export Plug-In . SVG Version: 6.00 Build 0)  -->
<!DOCTYPE svg PUBLIC "-//W3C//DTD SVG 1.1//EN" "http://www.w3.org/Graphics/SVG/1.1/DTD/svg11.dtd">
<svg xmlns="http://www.w3.org/2000/svg" xmlns:xlink="http://www.w3.org/1999/xlink" version="1.1" id="Capa_1" x="0px" y="0px" viewBox="0 0 397.756 397.756" style="enable-background:new 0 0 397.756 397.756;" xml:space="preserve" width="512px" height="512px">
<g>
	<path d="M307.947,203.85v-82.289c0-0.845-0.884-7.559-1.913-10.071l-37.001-90.353c-3.968-9.687-14.445-16.718-24.913-16.718   H63.826c-10.468,0-20.945,7.031-24.913,16.719l-37,90.351C0.883,114.001,0,120.716,0,121.561v194.315c0,7.168,5.832,13,13,13   h200.118c12.683,37.44,48.159,64.461,89.829,64.461c52.278,0,94.809-42.531,94.809-94.81   C397.756,247.926,357.909,206.458,307.947,203.85z M170.379,82.021h-26.051c-4.962,0-9,4.037-9,9v17.54H35.53l30.362-74.142h69.435   v13.549c0,4.963,4.038,9,9,9h26.051c4.962,0,9-4.037,9-9V34.419h62.675l30.362,74.142h-93.038v-17.54   C179.379,86.058,175.341,82.021,170.379,82.021z M302.947,363.337c-35.736,0-64.81-29.073-64.81-64.81s29.073-64.81,64.81-64.81   c35.736,0,64.809,29.073,64.809,64.81S338.683,363.337,302.947,363.337z" fill="#7A7A7A"/>
	<path d="M327.062,266.642l-28.56,33.445l-12.055-12.055c-5.858-5.859-15.355-5.857-21.213,0c-5.857,5.858-5.857,15.355,0,21.213   l15.751,15.752c4.758,4.758,11.207,7.437,17.826,7.437c0.319,0,0.641-0.006,0.961-0.019c6.953-0.273,13.567-3.506,18.148-8.871   l31.955-37.422c5.379-6.3,4.633-15.768-1.667-21.147C341.911,259.596,332.443,260.342,327.062,266.642z" fill="#7A7A7A"/>
</g>
<g>
</g>
<g>
</g>
<g>
</g>
<g>
</g>
<g>
</g>
<g>
</g>
<g>
</g>
<g>
</g>
<g>
</g>
<g>
</g>
<g>
</g>
<g>
</g>
<g>
</g>
<g>
</g>
<g>
</g>
</svg>
