<?xml version="1.0" encoding="iso-8859-1"?>
<!-- Generator: Adobe Illustrator 19.0.0, SVG Export Plug-In . SVG Version: 6.00 Build 0)  -->
<svg version="1.1" id="Layer_1" xmlns="http://www.w3.org/2000/svg" xmlns:xlink="http://www.w3.org/1999/xlink" x="0px" y="0px"
	 viewBox="0 0 512 512" style="enable-background:new 0 0 512 512;" xml:space="preserve">
<g>
	<g>
		<path d="M467,121h-15v-15c0-24.813-20.187-45-45-45l-51.73-1L329.416,8.292C326.936,3.327,321.763,0,316,0H136
			c-5.742,0-10.925,3.305-13.416,8.292L96.73,60H45C20.187,60,0,80.187,0,105v302c0,24.813,20.187,45,45,45h16v15
			c0,24.813,20.187,45,45,45c6.968,0,354.491,0,361,0c24.813,0,45-19.187,45-44V166C512,141.187,491.813,121,467,121z M355.27,90
			L407,91c8.271,0,15,6.729,15,15v302c0,8.271-6.729,14-15,14H299.027l-27.52-194.474l9.245-18.49
			c7.314,2.735,15.285-0.569,18.664-7.327L355.27,90z M329.229,75l-47.339,94.677l-36.085-36.085
			c6.652-8.868,60.886-81.179,67.633-90.175L329.229,75z M209.026,240h33.947l25.754,182h-85.455L209.026,240z M194.251,187.962
			L226,156.213l31.749,31.749L246.729,210H205.27L194.251,187.962z M286,30l-60,80l-60-80H286z M138.563,43.417
			c6.745,8.994,60.981,81.309,67.632,90.176l-36.085,36.085L122.771,75L138.563,43.417z M45,422c-8.271,0-15-6.729-15-15V105
			c0-8.271,6.729-15,15-15h51.73l55.854,111.708c3.345,6.69,11.275,10.089,18.663,7.327l9.245,18.49L152.973,422H45z M212.99,482
			H106c-8.271,0-15-6.729-15-15v-15c2.039,0,124.229,0,126.276,0L212.99,482z M243.295,482l4.286-30c9.357,0,67.479,0,76.838,0
			l4.286,30H243.295z M482,468c0,8.271-6.729,14-15,14H359.01l-4.286-30H407c24.813,0,45-19.187,45-44V151h15
			c8.271,0,15,6.729,15,15V468z"/>
	</g>
</g>
<g>
</g>
<g>
</g>
<g>
</g>
<g>
</g>
<g>
</g>
<g>
</g>
<g>
</g>
<g>
</g>
<g>
</g>
<g>
</g>
<g>
</g>
<g>
</g>
<g>
</g>
<g>
</g>
<g>
</g>
</svg>
