<?xml version="1.0" encoding="iso-8859-1"?>
<!-- Generator: Adobe Illustrator 19.0.0, SVG Export Plug-In . SVG Version: 6.00 Build 0)  -->
<svg version="1.1" id="Capa_1" xmlns="http://www.w3.org/2000/svg" xmlns:xlink="http://www.w3.org/1999/xlink" x="0px" y="0px"
	 viewBox="0 0 491.52 491.52" style="enable-background:new 0 0 491.52 491.52;" xml:space="preserve">
<circle style="fill:#E05B49;" cx="245.76" cy="245.76" r="245.76"/>
<path style="opacity:0.1;enable-background:new    ;" d="M383.13,108.186c-2.048-1.997-4.813-3.226-7.885-3.226h-258.97
	c-6.247,0-11.315,5.069-11.315,11.264v163.225c0,2.867,1.075,5.478,2.816,7.424l0.922,0.922l0.41,0.358L305.195,484.24
	C412.201,457.658,491.52,360.989,491.52,245.76c0-10.598-0.747-21.016-2.048-31.261l-106.24-106.211L383.13,108.186z"/>
<path style="fill:#27A2DB;" d="M375.27,104.96H116.25c-6.235,0-11.29,5.047-11.29,11.274v163.23c0,6.226,5.055,11.274,11.29,11.274
	h259.02c6.236,0,11.29-5.047,11.29-11.274v-163.23C386.56,110.007,381.506,104.96,375.27,104.96z"/>
<g>
	<path style="fill:#2D93BA;" d="M367.748,219.88c0.286-0.023,0.671-0.279,0.912-0.047c-0.174,0.414-0.487,0.815-0.912,1.008
		c-0.2,0.088-0.462,0.056-0.671,0.144c-0.399,0.164-0.609,0.579-0.958,0.864c-0.331,0.268-0.766,0.497-1.105,0.72
		c-0.326,0.212-0.799,0.646-1.199,0.334c0.031-0.561,0.629-0.555,0.77-1.008c-0.002-0.336-0.299-0.373-0.288-0.72
		c0.665-0.583,1.71-1.002,1.869-2.206c0.073-0.533-0.361-1.678,0.288-1.728c0.765-0.058,0.333,0.769,0.385,1.199
		c0.02,0.175,0.199,0.293,0.286,0.528C367.283,219.389,367.27,219.772,367.748,219.88z"/>
	<path style="fill:#2D93BA;" d="M363.095,222.758c-0.267,0.801-1.433,1.22-2.207,1.728c-0.236,0.157-0.43,0.512-0.72,0.623
		c-0.374,0.149-0.799,0.101-1.198,0.288c-0.634,0.298-1.11,0.881-1.679,1.248c-0.557,0.359-1.372,0.863-2.016,0.911
		c-0.71,0.054-2.021-0.402-1.151-1.055c0.377-0.281,1.176-0.612,1.583-0.815c1.364-0.685,3.283-1.146,4.413-1.968
		c0.639-0.464,1.217-0.957,1.824-1.342C362.247,222.182,362.758,222.702,363.095,222.758z"/>
	<path style="fill:#2D93BA;" d="M354.795,190.664c0.154-0.042,0.149,0.075,0.241,0.095c-0.058,0.686-0.469,1.134-1.345,1.057
		c-0.391-0.036-1.075-0.33-1.102-0.527C352.491,190.599,354.356,191.023,354.795,190.664z"/>
	<path style="fill:#2D93BA;" d="M352.444,193.926c0.346,0.098,1.887,1.189,1.391,1.678c-0.269,0.27-0.615-0.143-1.054-0.239
		c-0.588-0.128-1.038,0.028-1.439-0.288c-0.457-0.357-0.567-1.136-1.057-1.583c-0.247-0.225-0.901-0.528-1.342-0.48
		c-0.762,0.083-0.755,0.956-1.439,1.344c-0.655-0.07-1.043,0.12-1.536-0.049c-0.519-0.177-0.779-0.849-1.248-0.91
		c-0.487-0.066-1.641,0.785-1.822,0.047c-0.146-0.597,0.805-0.794,0.863-1.199c0.062-0.417-0.373-1.065-0.576-1.248
		c-0.201-0.182-0.483-0.196-0.72-0.335c-0.245-0.147-0.435-0.428-0.72-0.576c-1.004-0.525-2.539-0.311-2.926-1.152
		c-0.069-0.149,0.038-0.313-0.048-0.527c-0.104-0.263-0.491-0.348-0.624-0.576c-0.341-0.585-0.102-1.449,0.48-1.536
		c0.525-0.077,1.559,0.57,1.679,0.961c0.064,0.204-0.044,0.435,0,0.671c0.054,0.284,0.478,0.976,0.864,1.007
		c0.497,0.041,0.79-0.726,1.247-1.007c0.316-0.194,0.833-0.417,1.249-0.384c0.407,0.031,0.681,0.352,1.15,0.527
		c0.336,0.126,0.754,0.176,1.152,0.288c0.348,0.098,0.649,0.303,1.007,0.431c1.142,0.414,2.502,0.657,3.118,1.392
		c0.168,0.201,0.165,0.498,0.385,0.72c0.202,0.205,1.312,0.405,1.342,0.864c0.025,0.349-0.457,0.369-0.478,0.719
		C351.297,193.186,352.277,193.144,352.444,193.926z"/>
	<path style="fill:#2D93BA;" d="M342.321,222.663c-0.143,0.599-0.6,1.264-1.199,1.679c-0.433,0.301-1.809,0.91-1.966,0.049
		c-0.044-0.24,0.268-1.353,0.383-1.584c0.339-0.672,0.701-0.233,1.248-0.144C341.347,222.754,341.874,222.324,342.321,222.663z"/>
	<path style="fill:#2D93BA;" d="M338.579,152.907c0.195,0.576,0.328,1.142,0.481,1.679c-0.53,0.658-1.575,0.414-2.35,0.767
		c-0.365,0.166-0.465,0.772-0.817,0.864c-0.282,0.074-0.5-0.245-0.767-0.24c-0.689,0.013-1.026,1.153-1.872,0.864
		c-0.483,0.288,0.019,1.393-0.575,1.486c-0.423,0.067-0.655-0.48-0.912-0.815c-0.31-0.407-0.754-0.63-0.766-0.96
		c-0.013-0.342,0.688-0.913,0.91-1.151c0.273-0.292,0.808-0.836,1.151-0.912c0.639-0.14,1.289,0.062,1.776-0.143
		c0.42-0.179,0.444-0.841,0.671-1.008c0.193-0.142,0.412-0.103,0.577-0.192c0.445-0.241,0.926-1.071,0.671-1.919
		c-0.16-0.535-1.048-1.122-0.479-1.776c0.849,0.091,1.97,0.928,2.11,1.776c0.055,0.331-0.128,0.662-0.097,1.007
		C338.309,152.433,338.493,152.646,338.579,152.907z"/>
	<path style="fill:#2D93BA;" d="M338.772,147.677c-0.108,0.245-0.325,0.194-0.527,0.335c-0.196,0.138-0.429,0.578-0.671,0.624
		c-0.386,0.073-0.818-0.378-1.201-0.287c-0.449,0.107-0.186,0.452-0.335,0.863c-0.394-0.084-1.04-0.522-1.055-0.959
		c-0.011-0.275,0.346-0.445,0.433-0.767c0.142-0.549-0.227-0.825-0.433-1.344c-0.015-0.078,0.046-0.082,0.047-0.144
		c0.469-0.098,1.389,0.785,2.447,0.959C338.16,147.07,338.732,147.009,338.772,147.677z"/>
	<path style="fill:#2D93BA;" d="M336.998,196.373c0.049,0.399-0.647,0.352-0.72,0.094
		C336.292,196.159,336.912,196.062,336.998,196.373z"/>
	<path style="fill:#2D93BA;" d="M333.638,143.647c0.475,0.251,1.626,0.82,0.815,1.344
		C333.963,144.809,333.452,144.189,333.638,143.647z"/>
	<path style="fill:#2D93BA;" d="M331.432,194.263c0.549-0.299,1.149-0.956,2.11-0.625c-0.211,0.597-0.934,0.585-1.391,0.864
		c-0.463,0.282-0.854,0.761-1.439,0.815c-0.045-0.085-0.107-0.149-0.193-0.193C330.517,194.589,331.052,194.466,331.432,194.263z"/>
	<path style="fill:#2D93BA;" d="M330.137,185.242c0.563,0.001,1.094-0.173,1.485,0.048c-0.073,1.2-1.933,0.287-3.164,0.48
		c-0.263,0.04-0.34,0.243-0.625,0.143c0.016-0.406,0.455-0.816,0.911-0.862C329.096,185.014,329.622,185.241,330.137,185.242z"/>
	<path style="fill:#2D93BA;" d="M330.616,186.728c0.054,0.664-0.852,0.738-1.104,1.249c0.399,0.609,0.554,1.461,1.008,2.013
		c-0.019,0.366,0.074,0.844-0.144,1.008c-0.965,0.185-1.485-1.551-1.872-2.158c-0.738,0.138-0.064,2.5-1.054,2.206
		c-0.486-0.144,0.006-0.819-0.097-1.342c-0.09-0.46-0.54-0.555-0.575-0.913c-0.028-0.296,0.326-0.609,0.431-0.911
		c0.153-0.435,0.056-1.272,0.575-1.294c0.257-0.012,0.601,0.539,0.768,0.575C329.126,187.285,329.806,186.577,330.616,186.728z"/>
	<path style="fill:#2D93BA;" d="M328.841,193.878c-0.177,0.363-1.163,0.189-1.246-0.144
		C327.762,193.355,328.758,193.469,328.841,193.878z"/>
	<path style="fill:#2D93BA;" d="M327.928,195.028c-0.056,0.072-0.12,0.136-0.19,0.193c-0.365-0.117-0.754-0.205-0.864-0.576
		C327.144,194.251,327.916,194.578,327.928,195.028z"/>
	<path style="fill:#2D93BA;" d="M326.633,193.829c-0.243,0.346-1.088-0.028-1.391,0.336c-0.499-0.012-1.002-0.018-1.104-0.431
		c0.144-0.351,0.599-0.11,0.959-0.144C325.678,193.537,326.48,193.13,326.633,193.829z"/>
	<path style="fill:#2D93BA;" d="M319.87,212.204c-0.004-0.424-0.269-0.797-0.337-1.246c-0.024-0.162,0.024-0.372,0-0.577
		c-0.031-0.297-0.178-0.544-0.144-0.72c0.067-0.317,0.437-0.351,0.529-0.624c0.15-0.447-0.184-0.519-0.193-1.055
		c-0.006-0.379,0.287-0.563,0.481-1.055c0.089-0.228,0.092-0.653,0.191-0.815c0.125-0.204,0.655-0.378,0.864-0.478
		c0.736-0.361,1.325-1.032,2.065-1.152c0.186-0.03,0.441,0.023,0.575,0c0.435-0.076,0.981-0.441,1.583-0.575
		c0.582-0.132,1.097-0.083,1.535-0.337c0.481-0.277,1.162-1.004,1.342-1.439c0.219-0.527,0.155-0.972,0.576-1.151
		c0.207-0.087,0.409,0.007,0.624-0.047c0.222-0.058,0.699-0.285,0.864-0.432c0.335-0.299,0.389-0.79,0.767-1.104
		c0.263-0.216,0.756-0.549,1.104-0.718c0.205-0.103,0.585-0.21,0.766-0.193c0.677,0.058,0.992,1.002,1.728,0.815
		c0.263-0.066,0.531-0.625,0.769-0.959c0.346-0.489,0.597-1.149,1.198-1.295c0.485-0.119,1.028,0.186,1.295-0.24
		c0.061-0.303-0.227-0.483,0-0.672c0.56,0.035,1.505,0.79,2.35,0.815c0.456,0.015,1.301-0.496,1.392,0.193
		c0.04,0.305-0.341,0.551-0.431,0.864c-0.064,0.22,0.094,0.339-0.048,0.576c-0.391,0.154-0.803,0.235-0.815,0.671
		c-0.015,0.548,0.774,0.804,1.246,1.105c0.325,0.205,0.595,0.519,0.768,0.623c0.148,0.087,0.382,0.128,0.48,0.191
		c0.312,0.202,0.532,0.66,0.961,0.673c0.487,0.012,0.974-0.61,1.246-1.201c0.319-0.691,0.337-1.529,0.479-2.254
		c0.048-0.242,0.22-0.479,0.288-0.72c0.185-0.656,0.436-1.542,1.007-1.775c0.573,0.607,0.768,1.787,0.673,2.784
		c0.383,0.291,1.057,0.194,1.15,0.864c0.033,0.231-0.115,0.527-0.096,0.766c0.033,0.404,0.333,0.758,0.385,1.104
		c0.096,0.64-0.107,1.167,0.19,1.631c0.375,0.587,1.109,0.567,1.584,1.201c-0.009,0.393,0.148,0.552,0.24,0.861
		c0.045,0.147,0.003,0.386,0.049,0.481c0.154,0.321,0.569,0.352,0.72,0.622c0.074,0.133,0.053,0.384,0.144,0.624
		c0.131,0.352,0.447,0.615,0.671,0.96c0.217,0.333,0.572,0.696,0.624,0.961c0.096,0.478-0.251,0.806-0.336,1.199
		c-0.103,0.477,0,1.093-0.19,1.583c-0.223,0.577-0.772,1.145-1.201,1.871c-0.352,0.597-0.83,1.27-1.344,1.679
		c-0.303,0.242-0.663,0.383-0.96,0.625c-0.459,0.374-0.836,0.86-1.247,1.295c-0.432,0.457-0.956,0.806-1.296,1.198
		c-0.493,0.571-0.738,1.491-1.582,1.584c-0.494,0.054-0.938,0.012-1.392,0.193c-0.71,0.282-1.181,0.802-1.534,0.815
		c-0.371,0.012-0.714-0.435-1.057-0.48c-0.384-0.05-0.686,0.291-1.247,0.287c-0.229-0.001-0.344-0.136-0.671-0.24
		c-0.686-0.217-1.439-0.208-1.535-0.959c-0.054-0.409,0.26-0.593,0.239-0.96c-0.021-0.366-0.379-0.458-0.528-0.767
		c0.094-0.33,0.11-0.747-0.24-0.96c-0.012-0.298,0.064-0.511,0.193-0.671c-0.279,0.119-0.646,0.193-0.961,0.385
		c-0.349,0.211-0.601,0.695-1.006,0.623c-0.379-0.133-0.088-0.51-0.144-0.815c-0.042-0.233-0.573-1.225-0.817-1.391
		c-0.277-0.19-1.293-0.572-1.631-0.625c-1.483-0.232-2.428,0.561-3.599,0.674c-0.301,0.028-0.628-0.051-0.91,0
		c-0.964,0.168-2.039,0.934-2.639,1.438c-0.992,0.098-1.998-0.204-3.023,0.097c-1.016,0.296-1.599,1.144-3.164,0.91
		c-0.31-0.267-0.862-0.399-0.864-0.863c-0.004-0.366,0.541-0.602,0.72-0.864c0.189-0.28,0.512-0.939,0.527-1.344
		c0.01-0.319-0.215-0.7-0.193-1.102C319.695,212.851,319.872,212.515,319.87,212.204z"/>
	<path style="fill:#2D93BA;" d="M319.054,192.198c0.262-0.036,0.457-0.23,0.72-0.238c0.559-0.022,1.112,0.413,1.773,0.334
		c0.144,0.155,0.046,0.284,0.05,0.53c0.561,0.299,1.481,0.245,1.773,0.814c-0.42,0.446-1.044,0.126-1.583,0.047
		c-0.487-0.069-1.005-0.035-1.535-0.096c-0.671-0.078-1.278-0.449-1.918-0.527c-0.389-0.049-0.786,0.056-1.152,0
		c-0.431-0.067-2.04-0.674-2.063-1.102c-0.023-0.442,0.724-0.567,1.391-0.481C317.372,191.591,317.948,192.352,319.054,192.198z"/>
	<path style="fill:#2D93BA;" d="M320.348,188.889c-0.362-0.102-0.702-0.046-0.861-0.144c-0.329-0.202-0.28-0.776-0.386-1.104
		c-0.105-0.331-0.504-0.507-0.718-0.959c-0.313-0.654-0.447-2.119,0.383-2.255c0.334-0.056,0.678,0.201,0.911,0.144
		c0.463-0.114,0.382-0.713,0.768-0.961c0.214-0.138,0.607-0.08,0.912-0.191c0.314-0.115,0.55-0.414,0.767-0.671
		c0.201-0.24,0.359-0.642,0.624-0.815c0.298-0.197,0.574-0.201,0.815-0.384c0.629-0.48,0.649-1.149,1.151-1.728
		c0.426-0.489,1.1,0.471,1.152,0.864c0.238,0.305,0.707,0.38,0.911,0.72c-0.282,0.844-1.08,0.917-0.911,2.11
		c0.028,0.195,0.16,0.556,0.288,0.817c0.137,0.281,0.543,0.584,0.527,0.767c-0.031,0.359-0.754,0.343-0.912,0.72
		c-0.146,0.349,0.011,0.372-0.047,0.911c-0.202,0.391-0.744,0.486-0.912,0.961c-0.202,0.57,0.03,1.308-0.431,1.728
		c-0.319-0.017-0.668,0.276-1.054,0.238c-0.42-0.038-0.822-0.615-1.489-0.624c-0.254-0.002-0.555,0.163-0.815,0.144
		C320.816,189.161,320.65,188.972,320.348,188.889z"/>
	<path style="fill:#2D93BA;" d="M317.244,187.821c1.22,0,1.22,1.894,0,1.894C316.023,189.715,316.023,187.821,317.244,187.821z"/>
	<path style="fill:#2D93BA;" d="M315.455,187.592c0.15,0.02,0.681,0.759,0.672,0.961c-0.017,0.338-0.524,0.32-0.672,0.767
		c-0.225,0.689,0.102,1.47-0.287,1.824c-0.218,0.132-0.612,0.092-0.959,0.095c-0.87-0.612-1.559-1.341-2.303-2.159
		c-0.27-0.297-0.599-0.555-0.768-0.864c-0.249-0.458-0.338-0.962-0.623-1.391c-0.252-0.377-0.714-0.646-0.96-1.055
		c-0.2-0.337-0.22-0.779-0.431-1.104c-0.198-0.301-0.533-0.431-0.769-0.672c-0.153-0.157-0.24-0.403-0.383-0.575
		c-0.603-0.722-1.763-1.099-1.822-2.159c0.246-0.281,0.499,0.105,0.958,0.193c0.298,0.056,0.649-0.024,0.864,0.047
		c0.436,0.146,0.736,0.827,1.199,1.199c0.259,0.209,0.597,0.352,0.862,0.575c0.285,0.239,0.493,0.58,0.72,0.72
		c0.312,0.191,0.745,0.317,1.152,0.577c0.555,0.352,1.545,0.719,1.679,1.44c0.033,0.178-0.084,0.481-0.049,0.621
		c0.067,0.252,0.385,0.361,0.576,0.576c0.236,0.267,0.285,0.667,0.624,0.72C315.073,188.023,315.089,187.545,315.455,187.592z"/>
	<path style="fill:#2D93BA;" d="M292.811,177.517c0.413,0.136,1.792,1.811,1.391,2.736c-0.114,0.263-0.589,0.601-1.055,0.527
		c-0.95-0.15-0.768-2.264-0.48-3.119C292.693,177.592,292.743,177.544,292.811,177.517z"/>
	<path style="fill:#2D93BA;" d="M260.907,201.795c0.042-0.386,0.318-1.02,0.624-1.249c0.442-0.328,1.041-0.294,1.488-0.527
		c0.368-0.193,0.879-0.511,1.151-0.864c0.231-0.299,0.244-0.641,0.433-0.864c0.128-0.154,0.419-0.195,0.574-0.383
		c0.139-0.17,0.109-0.485,0.337-0.671c0.666-0.285,0.857,0.935,0.961,1.773c0.03,0.262,0.166,0.542,0.142,0.671
		c-0.069,0.383-0.491,0.462-0.623,0.722c-0.033,1.051-0.446,1.965-0.817,2.828c-0.319,0.747-0.504,1.564-0.767,2.208
		c-0.096,0.234-0.297,0.417-0.383,0.623c-0.346,0.817-0.474,2.098-1.104,2.447c-0.227,0.125-1.103,0.339-1.344,0.336
		c-0.588-0.009-1.097-0.45-1.247-0.958c-0.081-0.273-0.001-0.557-0.048-0.864c-0.058-0.385-0.287-0.714-0.24-1.152
		c0.107-0.976,1.057-1.45,1.104-2.255C261.182,203.011,260.84,202.409,260.907,201.795z"/>
	<path style="fill:#2D93BA;" d="M237.783,133.524c0.056,0.804-1.23,0.704-1.392,1.392c-0.073,0.311,0.15,0.727,0.097,1.007
		c-0.098,0.504-0.585,0.357-1.2,0.624c-0.314,0.136-0.618,0.635-0.96,0.671c-0.316,0.034-0.509-0.184-0.72-0.143
		c-0.315,0.059-0.21,0.446-0.672,0.527c-0.368,0.064-1.013-0.33-1.055,0.144c-0.028,0.304,0.579,0.469,0.96,0.431
		c0.302-0.029,0.522-0.236,0.815-0.24c0.568-0.005,0.938,0.422,1.295,0.432c0.824,0.023,1.632-0.761,2.496-0.672
		c0.39,0.04,0.622,0.316,0.911,0.288c0.463-0.044,0.856-0.578,1.199-0.768c-0.145-0.808,0.013-1.874,0.768-1.919
		c0.518-0.03,1.296,0.887,1.391,0c0.041-0.385-0.409-0.726-0.719-0.72c-0.276,0.006-0.638,0.547-0.864,0.097
		c0.001-0.44,0.494-0.323,0.768-0.433c0.203-0.081,0.348-0.303,0.576-0.384c1.141-0.401,2.723,0.394,3.166-0.576
		c-1.012-0.864-2.736,0.315-3.886,0.24c-0.491-0.031-1.138-0.396-1.295-0.864c-0.05-0.148-0.008-0.346-0.048-0.623
		c-0.044-0.306-0.202-0.627-0.191-0.817c0.048-0.866,2.206-1.03,2.206-2.11c-0.412-0.395-1.62-0.328-2.015,0.096
		c-0.142,0.153-0.135,0.461-0.336,0.768c-0.43,0.655-1.82,0.733-2.255,1.535c-0.097,0.178-0.265,0.665-0.193,0.959
		C236.745,132.923,237.75,133.047,237.783,133.524z M226.365,180.444c-1.382-0.202-2.796,0.355-3.742,0.767
		c-0.546,0.239-1.102,0.602-1.583,0.624c-0.456,0.022-0.904-0.242-1.342-0.287c-0.572-0.059-1.305-0.005-1.872,0.096
		c-0.551,0.098-1.049,0.492-1.535,0.527c-0.93,0.07-1.815-0.838-2.399-1.295c-0.357-0.278-0.721-0.507-1.055-0.767
		c-0.359-0.281-0.824-0.451-1.104-0.72c-0.378-0.366-0.378-1.002-0.576-1.488c-0.234-0.572-0.945-0.992-1.488-1.535
		c-0.406-0.406-1.337-1.013-1.439-1.535c-0.051-0.267,0.114-0.574,0.096-0.864c-0.025-0.421-0.342-0.659-0.335-0.96
		c0.01-0.422,0.506-0.748,0.624-1.104c0.061-0.182,0.031-0.439,0.096-0.671c0.135-0.487,0.457-0.775,0.384-1.488
		c-0.029-0.284-0.273-0.543-0.288-0.911c-0.01-0.252,0.166-0.393,0.144-0.624c-0.036-0.41-0.568-0.489-0.624-0.959
		c-0.056-0.486,0.464-0.887,0.768-1.439c0.137-0.247,0.212-0.626,0.336-0.815c0.269-0.408,0.708-0.606,0.912-1.008
		c0.15-0.297,0.199-0.737,0.336-0.959c0.177-0.286,0.528-0.44,0.864-0.815c0.273-0.306,0.384-0.677,0.575-0.815
		c0.241-0.174,0.601-0.217,0.864-0.335c0.888-0.405,1.537-0.926,1.966-1.776c-0.131-0.772,0.066-1.098,0.384-1.631
		c0.293-0.493,0.508-0.964,1.008-1.248c0.6-0.339,1.163-0.371,1.582-1.007c0.21-0.319,0.525-0.869,0.528-1.199
		c0.005-0.475-0.487-1.083-0.911-1.152c-0.434-0.069-1.1,0.33-1.343-0.143c-0.077-0.152,0.029-0.505,0-0.672
		c-0.056-0.314-0.325-0.536-0.335-0.767c-0.023-0.451,0.443-0.919,0.575-1.439c0.179-0.708,0.006-1.249-0.048-2.063
		c0.671-1.058,2.161-0.533,3.647-0.433c0.223,0.016,0.478-0.053,0.719-0.047c0.881,0.02,1.574,0.286,1.871-0.48
		c0.112-0.288,0.211-1.36,0.144-1.632c-0.079-0.321-0.709-1.154-1.008-1.342c-0.476-0.303-1.167-0.171-1.439-0.72
		c0.222-0.947,1.283-0.159,1.919-0.384c0.325-0.115,0.288-0.677,0.577-0.768c0.196-0.062,0.447,0.198,0.72,0.193
		c0.232-0.005,1.075-0.428,1.295-0.577c0.307-0.207,0.401-0.637,0.671-0.815c0.183-0.12,0.424-0.105,0.624-0.191
		c0.408-0.176,0.924-0.533,1.199-0.864c0.396-0.475,0.574-1.064,1.055-1.151c0.643-0.118,2.098,0.127,2.207-0.577
		c0.103-0.67-0.59-1.197-0.336-1.919c0.201-0.571,0.714-0.47,1.439-0.815c0.35,0.248,0.248,0.958,0.287,1.392
		c0.446,0.004,1.353-0.132,1.439-0.528c0.108-0.494-0.649-0.997-0.815-1.295c-0.179-0.323-0.218-0.892-0.576-0.959
		c-0.73-0.14-1.44,1.007-2.351,1.007c-0.598,0-1.233-0.462-1.391-0.911c-0.09-0.257-0.008-0.499-0.048-0.768
		c-0.058-0.393-0.293-0.8-0.191-1.342c0.367-0.63,1.214-0.732,1.823-1.056c0.23-0.122,0.415-0.384,0.671-0.48
		c0.43-0.159,1.066,0.001,1.488-0.24c0.267-0.151,0.192-0.413,0.384-0.72c0.12-0.193,0.413-0.305,0.575-0.527
		c0.113-0.154,0.126-0.387,0.24-0.528c0.417-0.518,1.177-0.71,1.487-1.247c0.137-0.237-0.236-0.326-0.143-0.672
		c0.155-0.335,0.753-0.089,1.102-0.144c0.477-0.074,0.918-0.654,1.439-0.767c0.544-0.118,1.127-0.046,1.632-0.24
		c0.302-0.117,0.579-0.39,0.864-0.433c0.101-0.015,0.384,0.055,0.527,0.048c0.183-0.007,0.38-0.12,0.624-0.144
		c0.353-0.035,0.79,0.086,1.248,0.096c0.758,0.017,1.479-0.228,2.111,0.048c0.33,0.144,0.293,0.518,0.719,0.671
		c0.215,0.077,0.498-0.03,0.816,0c0.47,0.045,0.961,0.369,1.583,0.432c0.222,0.022,0.451-0.028,0.671,0
		c0.686,0.084,1.439,0.445,2.112,0.671c0.562,0.19,1.753,0.427,1.775,0.96c0.027,0.631-1.036,0.815-1.488,0.815
		c-0.755,0-1.754-0.441-2.542-0.191c0.012,1.085,1.183,1.907,2.255,1.775c0.094-0.51-0.606-0.227-0.528-0.72
		c0.478-0.361,1.051,0.242,1.728,0.144c0.264-0.071,0.219-0.453,0.287-0.72c0.57-0.347,1.285-0.855,2.159-0.48
		c0.043-0.085,0.108-0.149,0.193-0.192c0.057-0.527-0.576-0.802-0.24-1.296c0.167-0.34,1.062-0.223,1.199,0.048
		c0.069,0.325-0.222,0.29-0.193,0.576c0.17,0.383,0.561,0.443,0.768,0.432c0.471-0.025,0.564-0.447,1.008-0.672
		c0.179-0.091,0.442-0.101,0.671-0.192c0.272-0.108,0.502-0.326,0.72-0.384c0.16-0.042,0.401,0,0.624-0.048
		c0.283-0.061,0.583-0.288,0.815-0.287c0.29,0,0.496,0.334,0.864,0.384c0.2,0.027,0.428-0.114,0.72-0.144
		c0.235-0.026,0.478,0.028,0.671,0c0.458-0.067,0.773-0.308,1.152-0.288c0.268,0.015,0.727,0.375,0.911,0.193
		c0.31-0.308-0.414-0.537-0.19-0.817c0.735,0.056,1.517,0.039,2.255,0.144c1.096,0.156,2.128,0.699,3.117,0.72
		c-0.093-0.666-0.857-0.475-1.199-0.767c-0.104-0.09-0.533-0.792-0.527-1.008c0.002-0.108,0.543-1.031,0.671-1.151
		c0.423-0.397,1.81-0.395,2.206,0.143c0.272,0.368,0.182,0.923,0.575,0.912c0.339-0.01,0.52-0.843,0.912-0.864
		c0.325-0.017,0.489,0.534,0.815,0.528c0.397-0.008,0.674-0.749,1.2-0.768c0.283-0.011,0.378,0.145,0.815,0.192
		c0.301-0.193-0.1-0.447,0.049-0.72c0.536-0.39,1.762-0.093,2.446-0.336c0.191-0.228-0.244-0.389-0.047-0.624
		c0.591-0.413,1.585-0.451,2.592-0.623c0.615-0.106,1.196-0.533,1.678-0.577c0.504-0.045,0.985,0.296,1.439,0.288
		c0.276-0.005,0.597-0.088,0.864-0.191c0.27-0.105,0.454-0.367,0.72-0.432c0.421-0.103,0.952,0.05,1.439,0
		c0.515-0.052,0.97-0.252,1.342-0.191c0.349,0.056,0.629,0.428,0.96,0.48c1.01,0.158,2.054-0.152,2.974,0.096
		c0.165,0.045,0.331,0.216,0.528,0.288c0.617,0.225,1.037,0.155,1.152,0.911c0.485,0.172,0.769,0.617,1.342,0.768
		c0.383,0.101,0.768-0.048,1.199-0.048c0.567,0,1.293,0.022,1.775,0.096c0.275,0.043,0.502,0.245,0.768,0.289
		c0.194,0.031,0.451-0.021,0.671,0c0.301,0.028,0.57,0.151,0.815,0.144c0.503-0.016,0.884-0.464,1.295-0.528
		c0.221-0.034,0.514,0.079,0.72,0.096c0.808,0.068,1.74-0.105,2.399,0.049c0.352,0.082,0.955,0.47,1.344,0.767
		c0.282,0.215,0.453,0.558,0.719,0.719c0.252,0.153,0.892,0.427,1.152,0.384c0.307-0.048,0.32-0.39,0.623-0.527
		c0.952-0.212,2.641,0.303,3.407-0.048c0.296-0.137,0.238-0.451,0.48-0.624c1.439-0.07,2.874,0.059,4.222,0.096
		c0.474,0.013,0.963-0.121,1.392-0.047c0.475,0.083,0.821,0.559,1.294,0.72c0.315,0.107,0.87,0.051,1.344,0.144
		c0.318,0.062,0.579,0.253,0.815,0.287c0.513,0.073,1.002-0.057,1.489-0.096c1.1-0.089,2.514-0.147,3.598,0.288
		c0.577,0.231,0.819,0.699,1.438,0.767c0.887,0.098,2.26-0.073,3.167,0c0.217,0.018,0.419,0.108,0.575,0.096
		c0.304-0.022,0.49-0.28,0.864-0.287c0.475-0.011,1.231,0.74,1.92,0.624c0.297-0.201-0.239-0.481,0.046-0.672
		c0.27-0.224,0.64-0.002,1.057,0c0.227,0.002,0.505-0.115,0.72-0.096c0.527,0.046,1.028,0.52,1.679,0.671
		c0.517,0.121,1.229,0.166,1.872,0.097c0.46-0.051,0.855-0.206,1.295-0.144c0.212,0.029,0.401,0.183,0.623,0.24
		c0.205,0.052,0.405,0.002,0.576,0.047c0.16,0.044,0.319,0.194,0.481,0.24c0.891,0.256,2.079,0.381,3.023,0.672
		c0.555,0.171,1.122,0.515,1.583,0.527c0.227,0.007,0.429-0.098,0.72-0.096c1.449,0.01,3.154,0.613,3.021,1.967
		c-1.696,0.372-3.115-1.168-4.893-0.719c-0.283,0.071-0.599,0.383-0.575,0.671c0.066,0.836,2.172,0.766,2.349,1.583
		c-0.345,0.258-0.722,0.014-1.007,0.048c-0.433,0.051-1.162,0.508-1.439,0.767c-0.325,0.304-0.609,1.083-0.959,1.152
		c-0.429,0.084-1.083-0.423-1.728-0.288c-0.236,0.05-0.463,0.344-0.671,0.384c-0.529,0.101-1.203-0.288-1.534,0.336
		c0.174,0.439,0.068,1.049,0.431,1.295c0.234,0.16,0.527,0.036,0.815,0.144c0.337,0.126,0.523,0.537,0.814,0.768
		c0.239,0.188,0.493,0.193,0.625,0.431c0.03,0.354-0.141,0.393-0.097,0.624c0.075,0.402,0.704,0.493,0.72,0.767
		c0.022,0.347-0.396,0.273-0.478,0.624c-0.03,0.223,0.258,0.282,0.287,0.576c0.019,0.196-0.159,0.401-0.143,0.624
		c0.021,0.32,0.273,0.533,0.239,0.815c-0.028,0.242-0.239,0.431-0.433,0.528c-0.918-0.59-1.746-1.403-2.734-2.159
		c-1.012-0.775-2.616-1.728-2.782-3.358c-0.006-0.25,0.529-0.446,0.623-0.815c0.038-0.152-0.06-0.367-0.047-0.576
		c0.034-0.563,0.499-1.105,0.481-1.439c-0.023-0.367-0.707-1.049-1.057-1.152c-0.278,0.147-0.003,0.437-0.048,0.672
		c-0.056,0.29-0.407,0.643-0.72,0.671c-0.907,0.079-1.009-1.169-2.447-0.815c-0.372,0.092-0.895,0.653-0.767,1.343
		c0.04,0.21,0.617,0.435,0.575,0.72c-0.04,0.276-1.307,0.357-1.584,0.336c-0.774-0.062-1.172-0.641-1.87-0.624
		c-0.343,0.008-0.643,0.287-0.912,0.335c-1.511,0.276-3.753-0.744-4.268,0.576c-0.074,0.187-0.033,0.43-0.097,0.624
		c-0.093,0.277-0.314,0.495-0.384,0.672c-0.058,0.148-0.049,0.44-0.144,0.671c-0.087,0.21-0.994,1.029-0.191,1.248
		c0.191,0.051,0.281-0.082,0.528-0.048c0.412,0.056,1.098,0.717,1.582,0.719c0.289,0.001,0.691-0.326,0.911-0.336
		c0.445-0.022,0.766,0.265,1.103,0.431c0.323,0.159,0.816,0.492,1.057,0.48c0.453-0.023,0.236-0.337,0.671-0.48
		c0.83,0.246,1.219,1.125,2.014,1.823c0.289,0.252,0.715,0.469,1.104,0.815c0.217,0.194,0.884,0.714,0.912,0.959
		c0.025,0.229-0.187,0.327-0.241,0.528c-0.078,0.292,0.104,0.506-0.096,0.72c-0.765-0.283-0.938-1.038-1.488-1.679
		c-0.204-0.239-0.409-0.522-0.718-0.864c-0.141-0.154-0.649-0.694-0.961-0.575c-0.603,0.229,0.331,1.143,0.48,1.343
		c0.319,0.423,0.741,0.992,0.769,1.439c0.018,0.286-0.186,0.806-0.193,1.295c-0.004,0.331,0.083,0.631,0.048,0.911
		c-0.036,0.281-0.236,0.602-0.337,0.912c-0.113,0.351-0.138,0.772-0.239,1.007c-0.186,0.432-0.814,0.941-1.249,0.959
		c-0.398,0.017-0.569-0.307-0.959-0.287c-0.59,0.028-0.699,0.572-1.054,1.007c0.03,0.472,0.178,0.635,0.096,0.96
		c-0.13,0.509-0.837,0.597-0.815,1.104c0.02,0.469,0.647,0.56,0.958,0.768c0.429,0.285,1.178,0.918,1.585,1.439
		c0.267,0.342,0.652,0.98,0.624,1.342c-0.036,0.475-1.403,1.135-1.969,0.96c-0.536-0.166-0.352-0.678-0.478-1.151
		c-0.098-0.363-0.383-0.52-0.527-0.815c-0.077-0.155-0.042-0.401-0.146-0.576c-0.289-0.488-0.795-0.222-1.392-0.528
		c-0.391-0.201-0.277-0.624-0.431-1.008c-0.206-0.516-1.076-0.76-1.774-0.623c-0.514,0.099-0.673,0.531-1.152,0.623
		c-0.704-0.417,0.144-1.445-0.719-1.535c-0.662-0.069-1.1,0.95-1.488,1.248c-0.262,0.2-0.736,0.241-0.767,0.527
		c-0.057,0.529,0.559,0.422,1.054,0.624c0.45,0.184,0.502,0.693,0.912,0.719c0.343,0.023,0.571-0.354,0.911-0.384
		c0.59-0.052,1.068,0.213,1.439,0.432c-0.24,0.581-1.531,1.008-1.535,1.775c-0.002,0.445,0.515,0.521,0.912,0.815
		c0.335,0.248,0.776,0.95,1.247,1.439c0.204,0.211,0.533,0.35,0.625,0.48c0.222,0.317,0.186,0.704,0.43,0.912
		c0.041,0.263-0.12,0.327-0.096,0.575c0.119,0.345,0.649,0.28,0.768,0.624c-0.098,0.827,0.246,1.606-0.431,1.919
		c-0.312,1.484-0.665,2.645-1.679,3.454c-0.912,0.726-2.116,0.94-3.215,1.295c-0.285,0.092-0.513,0.392-0.767,0.48
		c-0.638,0.217-1.775,0.085-1.822,0.864c-0.027,0.384,0.487,0.616,0.527,1.007c0.06,0.601-0.477,1.205-0.864,1.248
		c-0.278,0.03-0.879-0.164-0.912-0.672c-0.038-0.572,0.71-0.806,0.768-1.151c0.102-0.611-0.527-1.205-1.247-1.151
		c-0.634,0.047-2.075,1.319-2.11,2.015c-0.028,0.52,1.03,1.601,1.391,1.919c1.347,1.187,2.778,1.9,2.542,4.797
		c-0.336,0.734-1.197,0.891-1.87,1.295c-0.513,0.308-0.768,1.262-1.632,1.344c-0.347-0.119-0.144-0.66-0.24-0.911
		c-0.131-0.344-0.818-0.512-1.247-0.864c-0.351-0.288-0.499-0.743-0.768-1.008c-0.336-0.331-0.837-0.4-1.248-0.624
		c-0.258-0.141-0.459-0.635-0.72-0.623c-0.423,0.017-0.276,0.424-0.383,1.102c-0.107,0.667-0.594,1.18-0.433,1.967
		c0.068,0.322,0.47,0.583,0.671,0.911c0.333,0.544,0.379,1.178,0.72,1.488c0.225,0.205,0.608,0.249,0.864,0.431
		c0.509,0.364,1.404,1.151,1.584,1.584c0.208,0.505,0.007,1.1,0.144,1.632c0.16,0.614,0.963,1.054,0.481,1.679
		c-0.459-0.085-0.86-0.386-1.249-0.624c-0.659-0.408-0.962-0.76-1.391-1.439c-0.126-0.199-0.312-0.393-0.384-0.575
		c-0.167-0.43-0.131-0.917-0.287-1.439c-0.134-0.449-0.655-1.16-1.057-1.536c-0.337-0.317-0.934-0.503-0.959-0.959
		c-0.035-0.644,0.218-1.401,0.193-2.159c-0.006-0.164-0.117-0.328-0.143-0.527c-0.051-0.368,0.036-0.819-0.049-1.152
		c-0.079-0.306-0.302-0.583-0.431-0.863c-0.128-0.276-0.259-0.554-0.383-0.912c-0.195-0.555-0.413-1.625-0.864-1.679
		c-0.481-0.058-0.956,0.901-1.583,0.912c-0.322,0.005-0.751-0.253-0.815-0.577c-0.061-0.294,0.151-0.591,0.144-0.911
		c-0.018-0.643-0.475-0.892-0.816-1.344c-0.138-0.183-0.175-0.44-0.289-0.576c-0.218-0.26-0.635-0.406-0.911-0.671
		c-0.263-0.255-0.551-0.62-0.672-0.864c-0.185-0.376-0.245-0.863-0.527-0.912c-0.27-0.047-0.583,0.34-0.864,0.432
		c-0.292,0.096-1.01,0.219-1.295,0.24c-0.963,0.067-1.744-0.19-1.631,0.96c-0.15,0.516-0.695,0.522-1.056,0.767
		c-0.459,0.312-0.794,0.939-1.295,1.439c-0.244,0.245-0.596,0.398-0.815,0.624c-0.183,0.189-0.24,0.492-0.433,0.672
		c-0.512,0.484-1.279,0.525-1.629,1.2c-0.02,0.797,0.377,1.4,0.287,2.158c-0.041,0.345-0.299,0.652-0.337,1.008
		c-0.03,0.305,0.126,0.634,0.049,0.959c-0.043,0.174-0.236,0.266-0.385,0.48c-0.133,0.191-0.187,0.446-0.286,0.576
		c-0.162,0.207-0.428,0.351-0.578,0.528c-0.243,0.288-0.294,0.494-0.527,0.528c-1.051,0.151-1.311-1.849-1.775-2.687
		c-0.215-0.385-0.651-0.733-0.864-1.199c-0.246-0.538-0.321-1.213-0.672-1.823c-0.298-0.521-0.71-1.043-0.911-1.583
		c-0.171-0.457-0.319-1.029-0.48-1.535c-0.171-0.535-0.356-1.209-0.384-1.631c-0.04-0.623,0.12-1.007-0.384-1.248
		c-0.462,0.109-0.669,0.576-1.199,0.576c-0.512,0-1.886-0.887-1.486-1.679c-0.335-0.475-1.18-0.735-1.824-1.295
		c-0.368-0.321-0.702-1.086-1.342-1.151c-0.177-0.018-0.407,0.081-0.577,0.096c-0.406,0.035-1.126-0.036-1.584,0
		c-0.575,0.046-1.286,0.176-2.015,0.096c-0.469-0.051-1.052-0.142-1.535-0.191c-0.614-0.063-1.431-0.209-1.774-0.528
		c-0.213-0.196-0.299-0.825-0.673-0.911c-0.444-0.103-0.689,0.241-1.102,0.335c-0.88,0.201-1.614-0.18-2.208-0.576
		c-0.421-0.28-0.806-0.425-1.103-0.624c-0.73-0.488-0.86-1.957-1.968-1.968c-0.385-0.003-0.998,0.238-1.055,0.672
		c-0.038,0.305,0.365,0.872,0.528,1.104c0.538,0.758,1.526,1.043,1.823,2.062c0.199,0.077,0.604-0.174,0.815,0.048
		c0.186,0.437-0.003,1.249,0.431,1.439c1.994,0.329,2.563-0.763,3.455-1.535c0.517,0.338,0.346,0.634,0.527,1.007
		c0.184,0.383,0.472,0.683,0.815,0.817c0.241,0.092,0.55,0.006,0.912,0.143c0.227,0.086,1.172,0.981,1.201,1.296
		c0.024,0.282-0.622,1.243-0.818,1.486c-0.19,0.238-0.485,0.361-0.575,0.576c-0.068,0.166-0.046,0.519-0.096,0.624
		c-0.088,0.191-0.519,0.441-0.768,0.671c-0.262,0.245-0.567,0.435-0.815,0.624c-0.303,0.233-0.491,0.552-0.815,0.672
		c-0.638,0.235-1.246,0.135-1.775,0.48c-0.347,0.225-0.348,0.734-0.767,1.007c-0.438,0.285-1.189,0.287-1.824,0.577
		c-0.408,0.185-0.653,0.545-1.006,0.671c-0.144,0.051-0.325,0.007-0.481,0.048c-0.319,0.081-0.613,0.308-0.912,0.383
		c-0.236,0.061-0.487,0.03-0.72,0.097c-0.739,0.213-1.416,0.964-2.159,0.527c-0.35-0.808-0.407-1.826-0.815-2.543
		c-0.208-0.366-0.618-0.479-0.767-0.863c-0.021-0.309,0.351-0.224,0.383-0.48c-0.122-0.518-0.612-0.761-0.911-1.2
		c-0.147-0.215-0.214-0.52-0.384-0.767c-0.572-0.832-1.7-1.265-1.919-2.303c-0.059-0.282,0.01-0.504-0.047-0.72
		c-0.094-0.355-0.335-0.728-0.577-1.007c-0.183-0.213-0.557-0.359-0.767-0.672c-0.139-0.207-0.17-0.499-0.288-0.719
		c-0.477-0.891-1.168-1.677-1.919-2.303c-0.391,0.057-0.812,0.084-1.007,0.337c0.195,0.628,0.494,1.153,0.815,1.679
		c0.293,0.479,0.71,0.995,0.911,1.535c0.075,0.2,0.062,0.461,0.144,0.671c0.301,0.761,1.25,0.995,1.439,1.872
		c0.128,0.588-0.028,0.995,0.144,1.582c0.165,0.564,0.998,0.898,1.344,1.439c0.281,0.442,0.283,1.067,0.48,1.488
		c0.287,0.615,1.09,0.882,1.679,1.295c0.528,0.372,0.906,0.945,1.342,1.343c0.257,0.233,0.61,0.275,0.672,0.528
		c0.081,0.325-0.137,0.434-0.193,0.718c0.368,0.384,0.727,1.093,1.344,1.152c0.254,0.024,0.573-0.231,0.96-0.288
		c0.195-0.028,0.413,0.03,0.575,0c0.256-0.046,0.478-0.274,0.769-0.336c0.49-0.105,1.058-0.063,1.678-0.144
		c0.586-0.076,0.99-0.572,1.439-0.431c0.493,0.542,0.139,1.156,0,1.679c-0.049,0.184-0.049,0.374-0.094,0.528
		c-0.259,0.854-0.938,1.487-1.249,2.254c-0.096,0.235-0.079,0.524-0.19,0.767c-0.357,0.769-1.102,1.528-1.681,2.159
		c-0.326,0.355-0.613,0.676-0.959,0.959c-0.344,0.283-0.765,0.437-1.152,0.72c-0.768,0.562-1.568,1.368-2.11,2.112
		c-0.21,0.288-0.31,0.62-0.528,0.864c-0.312,0.349-0.796,0.521-1.055,0.864c-0.205,0.27-0.341,0.76-0.576,1.247
		c-0.264,0.549-0.815,0.92-0.719,1.679c0.036,0.291,0.296,0.471,0.384,0.768c0.149,0.511,0.035,0.941-0.049,1.486
		c0.271,0.658,0.467,1.39,0.96,1.823c0.059,0.971-0.08,1.913,0,2.734c0.051,0.523,0.254,0.909,0.048,1.391
		c-0.182,0.425-0.878,1.173-1.295,1.439c-0.453,0.292-1.146,0.368-1.632,0.721c-0.338,0.244-0.618,0.673-0.96,0.96
		c-0.566,0.471-1.341,0.912-1.391,1.391c-0.029,0.275,0.217,0.692,0.287,0.958c0.188,0.709,0.37,1.728,0.049,2.494
		c-0.348,0.83-2.107,0.658-2.303,1.535c-0.06,0.267,0.117,0.48,0.096,0.768c-0.017,0.244-0.338,1.126-0.48,1.391
		c-0.212,0.397-0.694,0.575-1.007,0.912c-0.393,0.425-0.591,1.041-1.008,1.486c-0.566,0.608-1.33,1.249-2.063,1.775
		c-0.638,0.46-1.781,0.938-2.782,1.008c-0.583,0.041-1.208-0.137-1.823-0.047c-0.225,0.031-0.47,0.239-0.768,0.287
		c-0.173,0.028-0.35-0.03-0.527,0c-0.302,0.051-0.584,0.291-0.864,0.288c-0.622-0.007-1.42-0.749-1.439-1.487
		c-0.007-0.285,0.243-0.555,0.24-0.817c-0.005-0.306-0.38-0.691-0.672-1.248c-0.28-0.536-0.39-1.142-0.671-1.581
		c-0.298-0.467-0.692-0.689-0.911-1.057c-0.442-0.738-0.475-1.611-0.624-2.496c-0.048-0.288-0.246-0.601-0.288-0.96
		c-0.052-0.441,0.053-0.93-0.047-1.295c-0.077-0.281-0.389-0.567-0.577-0.912c-0.338-0.622-0.576-1.435-0.863-1.918
		c-0.27-0.453-0.815-0.925-0.864-1.439c-0.033-0.349,0.044-1,0.096-1.344c0.052-0.337,0.302-0.604,0.384-0.958
		c0.055-0.236-0.011-0.507,0.047-0.768c0.245-1.098,1.454-1.497,1.296-2.831c-0.068-0.566-0.468-0.845-0.528-1.488
		c-0.028-0.301,0.15-0.564,0.144-0.864c-0.008-0.405-0.351-1.007-0.528-1.391c-0.486-1.059-0.784-2.027-1.487-2.83
		c-0.383-0.438-0.884-0.747-1.199-1.152c-0.258-0.329-0.572-0.946-0.577-1.199c-0.005-0.274,0.211-0.445,0.288-0.72
		c0.101-0.354,0.108-1.024,0.24-1.583c0.061-0.257,0.338-0.878,0.288-1.295c-0.048-0.401-0.646-1.17-1.152-1.295
		c-0.67-0.166-1.359,0.214-2.206,0.144C227.363,181.806,227.417,180.598,226.365,180.444z M252.895,197.62
		c0.222-0.352,0.501-1.344,0-1.584c-0.033,0-0.064,0-0.096,0C252.585,196.435,252.357,197.397,252.895,197.62z M252.223,187.592
		c0.162-0.332,0.543-0.683,0.48-1.102c-0.138-0.925-1.867-0.469-2.062,0.191c-0.132,0.444,0.079,0.797-0.097,1.248
		c0.189,0.355,0.663,0.425,1.248,0.383C252.115,188.17,252.075,187.897,252.223,187.592z M249.297,192.535
		c0.19-0.352-0.303-0.583-0.384-0.96c-0.095-0.442,0.107-0.962-0.289-1.2c-0.047,0-0.096,0-0.143,0
		C248.134,191.161,248.626,192.459,249.297,192.535z M282.016,144.894c-0.18-0.362-0.699,0.107-0.478,0.433
		C281.862,145.347,281.979,145.159,282.016,144.894z M270.839,146.861c0.778-0.15,0.009-1.393-0.577-1.248
		C269.498,145.805,270.308,146.963,270.839,146.861z M267.288,153.05c0.24-1.663-1.057-1.788-1.295-2.974
		c0.11,0.015,0.053-0.138,0.144-0.144c0.315-0.152,0.791,0.242,0.958-0.143c0.004-0.568-0.717-0.992-1.439-0.72
		c-0.208-0.143-0.236-0.467-0.287-0.768c-0.544-0.323-1.89-1.031-1.872-1.679c0.016-0.533,0.704-0.832,1.488-0.815
		c0.331-0.251,0.118-1.021-0.191-1.2c-1.241-0.271-1.902-0.088-2.687,0.48c-0.377,0.273-0.797,0.46-1.008,0.624
		c-0.194,0.15-0.453,0.561-0.431,0.767c0.03,0.297,0.456,0.471,0.624,0.864c0.086,0.202,0.068,0.455,0.144,0.624
		c0.21,0.463,0.746,0.762,1.151,1.151c0.286,0.275,1.088,0.871,1.104,1.199c0.015,0.274-0.246,0.334-0.334,0.624
		c-0.091,0.284-0.195,0.953-0.144,1.199c0.105,0.527,0.651,0.545,1.149,0.768c0.496,0.221,0.973,0.611,1.488,0.623
		C266.397,153.544,266.981,153.368,267.288,153.05z M256.013,149.596c1.3-0.235,0.707-1.334,0.047-1.726
		c-0.499-0.298-1.096-0.557-1.679-0.912c-0.338-0.206-1.623-0.595-1.631-1.007c-0.01-0.451,0.956-0.598,0.575-1.392
		c-0.657-0.16-2.218,0.092-2.11,0.815c0.062,0.418,0.557,0.186,0.671,0.624c-0.47,0.167-1.042,0.606-1.535,0.528
		c-0.588-0.092-0.739-0.814-1.055-1.248c-0.457,0.015-0.757-0.442-1.295-0.384c-0.564,0.062-0.864,0.881-1.152,1.296
		c-0.153,0.218-0.396,0.331-0.48,0.527c-0.049,0.119,0.005,0.308-0.047,0.48c-0.165,0.533-0.626,0.728-0.577,1.199
		c0.045,0.415,0.497,0.602,0.529,0.959c-0.032,0.368-0.623,0.177-0.576,0.624c0.859,0.709,0.906-0.334,1.344-0.48
		c0.351-0.118,1.041,0.097,1.486,0c0.36-0.079,0.643-0.422,1.055-0.575c0.252-0.095,0.563-0.178,0.912-0.193
		c1.526-0.063,2.511,0.93,3.838,0.959C254.773,149.701,255.558,149.678,256.013,149.596z M252.943,155.257
		c0.027-0.515-0.196-0.903-0.24-1.631c-0.886-0.534-1.547,0.496-2.446,0.383c-0.552-0.069-0.949-0.713-1.535-0.623
		c-0.323,0.048-0.483,0.466-0.817,0.527c-0.686,0.126-0.998-0.549-1.726-0.287c-1.027-0.783-1.486-2.057-1.728-3.502
		c-0.559-0.734-1.413-0.137-1.823,0.336c-0.252-0.002-0.567-0.139-0.623,0.144c-0.189,0.887,1.254,0.981,1.247,1.583
		c-0.005,0.391-0.563,0.355-0.815,0.623c-0.268,0.285-0.09,0.538-0.431,0.72c-0.946,0.114-1.26-0.403-1.248-1.247
		c-0.408-0.62-0.924-1.072-1.295-1.583c-0.137-0.189-0.342-0.484-0.384-0.768c-0.034-0.224,0.107-0.509,0.048-0.767
		c-0.104-0.458-0.957-0.803-1.488-1.055c-0.567-0.27-1.277-0.526-1.679-0.864c-0.285-0.24-0.419-0.657-0.671-0.815
		c-0.214-0.135-0.481-0.107-0.672-0.24c-0.263-0.184-0.219-0.491-0.575-0.577c-0.181-0.067-0.459,0.179-0.576,0.337
		c-0.234,1.047,0.618,1.118,1.007,1.582c0.268,0.319,0.401,0.798,0.672,1.008c0.289,0.224,0.683,0.183,1.055,0.336
		c0.257,0.105,0.424,0.425,0.671,0.576c0.458,0.279,1.193,0.327,1.248,0.864c-0.285,0.194-0.93-0.282-1.151,0.193
		c-0.057,0.311,0.247,0.471,0.24,0.767c-0.012,0.472-0.537,0.99-1.008,0.912c-0.047-0.281,0.251-0.511,0.24-0.816
		c-0.021-0.611-1.248-1.542-1.871-1.822c-0.292-0.132-0.647-0.139-0.912-0.288c-0.471-0.265-1.296-0.917-1.583-1.295
		c-0.343-0.455-0.636-1.295-1.391-1.248c-0.308,0.019-0.562,0.302-0.815,0.433c-0.23,0.117-0.485,0.227-0.72,0.383
		c-0.28,0.185-0.508,0.373-0.768,0.384c-0.602,0.026-1.113-0.447-1.631-0.335c-0.174,0.038-0.32,0.194-0.528,0.384
		c-0.007,0.28,0.084,0.459,0.048,0.767c-0.156,0.27-0.62,0.253-0.959,0.433c-0.497,0.262-0.939,0.8-1.344,1.199
		c-0.26,0.257-0.495,0.469-0.528,0.671c-0.026,0.159,0.134,0.459,0.097,0.673c-0.043,0.231-0.477,0.711-0.768,0.911
		c-0.17,0.116-0.395,0.132-0.576,0.24c-0.378,0.224-0.548,0.516-0.864,0.576c-0.839,0.156-2.362-0.168-2.35,0.72
		c0.007,0.594,0.808,0.596,1.295,0.575c0.678-0.027,1.255,0.144,1.631,0.048c0.259-0.065,0.543-0.356,0.815-0.48
		c0.172-0.077,0.35-0.079,0.48-0.144c0.287-0.144,0.45-0.378,0.672-0.48c0.439-0.2,1.255-0.356,1.726-0.384
		c0.647-0.038,1.323,0.067,2.159,0c0.298-0.023,0.592-0.214,0.912-0.24c0.522-0.041,1.209,0.206,1.631,0.193
		c0.292-0.01,0.618-0.293,0.959-0.288c0.387,0.006,0.794,0.281,0.864,0.528c0.04,0.14-0.081,0.365-0.048,0.576
		c0.056,0.349,0.355,0.493,0.337,0.719c-0.026,0.301-0.774,0.701-0.672,1.055c0.067,0.228,0.603,0.465,0.864,0.624
		c0.273,0.166,0.733,0.396,1.055,0.431c0.271,0.03,0.511-0.075,0.768-0.047c0.413,0.045,1.082,0.296,1.344,0.48
		c0.451,0.318,0.388,0.826,0.911,1.007c0.223,0.078,0.625,0.034,0.911,0.097c0.699,0.151,1.217,0.731,1.728,0.671
		c0.803-0.093,0.437-0.85,0.528-1.391c0.205-1.225,2.597-1.169,3.07-0.337c0.35,0.093,0.657,0.015,1.055,0.144
		c0.23,0.075,0.402,0.327,0.624,0.384c0.167,0.042,0.411-0.024,0.624,0c0.92,0.104,1.753,0.789,2.543,0.671
		c0.501-0.074,0.865-0.545,1.342-0.576c0.918-0.057,1.506,0.683,2.496,0.336c0.728-0.256,0.566-1.01,0.815-1.775
		C252.589,156.02,252.923,155.658,252.943,155.257z M304.661,138.897c0.19-0.611-0.106-1.227-0.48-1.631
		c-0.554,0.096-0.154,0.671-0.191,1.008c-0.054,0.476-0.56,0.807-0.528,1.295c-0.184,0.216-0.499,0.3-0.527,0.671
		c0.305,0.211,0.438-0.166,0.671-0.384C303.972,139.512,304.533,139.309,304.661,138.897z M292.091,122.25
		c-0.528,0-0.727,0.208-1.055,0.384c-0.181,0.096-0.548,0.149-0.431,0.431C291.065,123.009,291.981,122.801,292.091,122.25z
		 M271.846,128.151c1.128,0.263,1.657-1.011,0.911-1.728c-0.175-0.167-0.763-0.233-1.006-0.623
		c-0.294-0.469-0.253-1.095-0.961-0.959c-0.007,0.056,0.009,0.136-0.049,0.143c-0.066,1.049,1.461,1.313,1.439,2.159
		C272.17,127.586,271.701,127.634,271.846,128.151z"/>
	<path style="fill:#2D93BA;" d="M256.061,126.328c-0.139-0.519,0.844-0.435,0.672,0.048
		C256.579,126.52,256.159,126.508,256.061,126.328z"/>
	<path style="fill:#2D93BA;" d="M250.161,155.017c0.022-0.396,0.926-0.542,1.102-0.191
		C251.204,155.211,250.346,155.476,250.161,155.017z"/>
	<path style="fill:#2D93BA;" d="M233.705,152.427c0.5-0.405,1.614-0.131,2.303-0.144c-0.13,0.367-0.149,0.843-0.432,1.055
		C234.79,153.196,234.057,153.003,233.705,152.427z"/>
	<path style="fill:#2D93BA;" d="M230.203,149.884c0.659-0.688,1.351-0.325,1.104,1.007c-0.158,0.397-0.843,0.928-1.152,0.337
		C230.26,150.762,230.215,150.42,230.203,149.884z"/>
	<path style="fill:#2D93BA;" d="M231.162,148.349c0.055,0.406-0.115,0.588-0.336,0.72
		C230.194,148.957,230.675,147.822,231.162,148.349z"/>
	<path style="fill:#2D93BA;" d="M221.856,138.61c0.056-0.274-0.159-0.614-0.433-0.768c-0.157-0.089-0.399-0.047-0.576-0.144
		c-0.468-0.257-0.637-0.792-0.911-0.911c0.035-0.526-0.144-0.906,0-1.248c0.087-0.207,0.717-0.792,1.055-0.911
		c0.419-0.148,0.858-0.016,1.104-0.336c0.11-0.016,0.184,0.007,0.24,0.047c-0.002,0.303-0.257,0.352-0.288,0.624
		c0.059,0.436,0.827,0.163,0.911,0.575c-0.073,0.448-0.476,0.537-0.48,0.864c-0.001,0.285,0.581,0.825,0.864,1.2
		c0.211,0.277,0.579,0.483,0.768,0.768c0.165,0.248,0.201,0.544,0.335,0.671c0.252,0.239,0.822,0.279,0.864,0.624
		c0.056,0.458-0.569,0.639-0.48,1.151c-0.659,0.517-1.758,0.25-2.831,0.384c-0.486,0.062-1.021,0.545-1.535,0.144
		c-0.119-0.322,0.426-0.366,0.48-0.671c-0.038-0.283-0.396-0.244-0.48-0.48c0.139-0.373,0.574-0.449,0.528-1.008
		C221.259,138.893,221.774,139.004,221.856,138.61z"/>
	<path style="fill:#2D93BA;" d="M218.257,137.458c0.641-0.391,1.76-0.092,1.822,0.384c0.047,0.36-0.34,0.412-0.48,0.815
		c-0.125,0.367,0.024,0.803-0.143,1.056c-0.147,0.219-0.545,0.206-0.817,0.287c-0.603,0.181-1.769,0.889-2.255,0.096
		c0.07-0.425,0.482-0.51,0.624-0.863c0.008-0.277-0.287-0.424-0.24-0.719c0.058-0.362,0.331-0.238,0.72-0.384
		C217.771,138.022,217.893,137.681,218.257,137.458z"/>
	<path style="fill:#2D93BA;" d="M185.49,127.047c0.101,0.426-1.262,0.984-1.392,0.433
		C183.995,127.039,185.142,126.488,185.49,127.047z"/>
	<path style="fill:#2D93BA;" d="M183.906,235.184c-0.24,0-0.48,0-0.72,0C183.316,235.105,183.777,235.105,183.906,235.184z"/>
	<path style="fill:#2D93BA;" d="M181.747,123.642c0.062-0.067,0.227-0.067,0.289,0c-0.047,0.113-0.085,0.235-0.289,0.191
		C181.747,123.769,181.747,123.705,181.747,123.642z"/>
	<path style="fill:#2D93BA;" d="M177.478,131.269c0.01,0.264-0.953,0.701-1.056,0.192c-0.017-0.09,0.005-0.269,0.193-0.383
		C176.87,130.921,177.468,131.01,177.478,131.269z"/>
	<path style="fill:#2D93BA;" d="M157.52,175.838c-0.025,0.071-0.071,0.121-0.096,0.193
		C156.914,176.013,157.374,175.361,157.52,175.838z"/>
	<path style="fill:#2D93BA;" d="M138.041,142.304c0.337-0.196,0.659,0.296,0.433,0.528
		C138.103,142.903,138.008,142.479,138.041,142.304z"/>
	<path style="fill:#2D93BA;" d="M190.334,144.079c-0.224-0.056-0.529-0.045-0.815-0.096c-0.245-0.044-0.536-0.116-0.767-0.144
		c-0.592-0.07-1.233,0.102-1.584-0.24c0.571-0.759,1.329-1.506,2.063-2.159c0.218-0.195,0.687-0.328,0.576-0.72
		c-0.408-0.359-0.91,0.022-1.295,0.24c-0.405,0.228-0.887,0.556-1.344,0.624c-0.793,0.118-1.846-0.233-2.494,0.191
		c-0.09,0.362,0.738,0.222,0.623,0.768c-0.318,0.052-0.618,0.078-0.863-0.144c-0.223-0.201-0.096-0.503-0.24-0.624
		c-0.246-0.203-1.17-0.259-1.583-0.191c-0.504,0.082-0.95,0.384-1.008,0.815c0.606,0.284,1.604-0.292,1.823,0.432
		c-0.332,0.597-1.113,0.926-1.008,1.727c0.041,0.309,0.408,0.722,0.672,0.768c0.265,0.046,0.414-0.217,0.671-0.193
		c0.271,0.026,0.21,0.336,0.528,0.288c0.462-0.197,0.717-0.846,1.247-0.816c0.635,0.771-0.573,1.146-1.247,1.391
		c-0.768,0.279-1.766,0.426-2.352,0.672c-0.306,0.128-1.467,1.25-1.631,0.383c-0.118-0.625,0.574-0.444,0.72-0.959
		c-0.743-0.144-1.435,0.32-2.111,0.577c-0.964,0.365-2.599,0.596-2.831,1.679c-0.046,0.217,0.094,0.623-0.047,0.767
		c-0.115,0.116-0.803,0.137-1.104,0.24c-0.463,0.159-0.866,0.498-1.152,0.576c-0.216,0.059-0.534,0.042-0.671,0.097
		c-0.381,0.148-0.522,0.664-0.96,1.007c-0.179,0.14-0.577,0.242-0.72,0.384c-0.248,0.247-0.281,0.866-0.719,0.959
		c-0.279,0.024-0.505-0.21-0.768-0.048c-0.031,0.612,0.215,1.444-0.047,2.063c-0.568,0.463-1.192,0.791-1.919,1.199
		c-0.402,0.227-0.762,0.285-1.248,0.528c-0.344,0.172-0.659,0.581-1.055,0.815c-0.916,0.539-2.022,1.178-2.015,2.543
		c0.001,0.296,0.154,0.614,0.192,0.959c0.023,0.203-0.024,0.402,0,0.624c0.057,0.501,0.42,1.14,0,1.486
		c-0.646-0.265-1.467-0.355-1.919-0.815c-0.123-0.474,0.25-0.864,0.193-1.295c-0.046-0.347-0.533-0.963-0.817-1.008
		c-0.292-0.046-0.561,0.264-0.863,0.24c-0.359-0.028-0.692-0.522-1.152-0.576c-0.675-0.079-1.172,0.154-1.919,0.049
		c-0.723,0.387-0.935,1.075-1.822,1.007c-0.313-0.023-0.598-0.262-0.959-0.335c-0.391-0.081-0.985-0.219-1.392-0.191
		c-0.817,0.054-1.409,0.642-2.11,1.007c-0.619,0.322-1.495,0.723-1.679,1.392c-0.101,0.36-0.016,0.866-0.144,1.199
		c-0.085,0.219-0.27,0.414-0.384,0.623c-0.538,0.982-0.984,2.281-0.575,3.695c0.06,0.21,0.595,1.392,0.815,1.631
		c0.247,0.265,0.975,0.664,1.391,0.671c0.351,0.007,0.763-0.178,1.104-0.24c0.395-0.07,0.889-0.076,1.248-0.192
		c1.037-0.332,0.832-1.735,1.87-2.207c0.453-0.205,0.978-0.246,1.775-0.287c0.253,0.213,0.372,0.586,0.337,0.911
		c-0.027,0.245-0.259,0.467-0.384,0.816c-0.109,0.307-0.132,0.665-0.24,0.912c-0.143,0.324-0.462,0.56-0.576,0.864
		c-0.075,0.197-0.034,0.443-0.096,0.623c-0.11,0.316-0.533,0.539-0.337,0.864c1.027,0.408,2.27-0.116,3.167,0.048
		c0.378,0.069,1.158,0.521,1.151,1.104c-0.005,0.436-0.337,0.722-0.384,1.2c-0.058,0.601-0.309,1.336-0.335,1.822
		c-0.042,0.796,1.168,2.17,2.015,2.159c0.912-0.012,1.444-0.907,2.543-0.431c0.365,0.157,0.75,0.749,1.152,0.72
		c0.332-0.024,0.834-0.606,1.055-1.008c0.27-0.491,0.289-0.904,0.767-1.151c0.515-0.266,0.924-0.138,1.583-0.384
		c0.294-0.109,0.55-0.297,0.815-0.48c0.233-0.16,0.477-0.579,0.768-0.288c0.383,0.383-0.469,0.598-0.144,1.008
		c0.665,0.353,1.006-0.655,1.488-0.671c0.154-0.005,0.686,0.299,0.959,0.48c0.374,0.246,0.502,0.591,0.911,0.671
		c0.263,0.052,0.686-0.101,1.055-0.048c0.489,0.07,0.781,0.49,1.152,0.48c0.452-0.012,0.669-0.504,1.055-0.576
		c0.847-0.155,1.162,0.095,1.535,0.624c0.418,0.073,0.432-0.483,0.815-0.287c-0.21,0.418,0.072,0.61,0.24,0.959
		c0.109,0.224,0.091,0.383,0.193,0.48c0.229,0.218,0.671,0.218,1.007,0.431c0.354,0.223,0.554,0.637,0.96,1.104
		c0.418,0.477,1.121,0.972,1.679,1.007c0.527,0.034,0.956-0.149,1.392-0.096c0.992,0.122,1.609,0.618,2.303,1.152
		c0.388,0.298,0.738,0.505,0.863,0.862c0.087,0.249,0.045,0.584,0.144,0.864c0.212,0.597,1.083,0.885,0.768,1.919
		c0.144,0.303,0.468,0.412,0.815,0.624c0.279,0.171,0.514,0.527,0.815,0.576c0.195,0.031,0.407-0.059,0.576-0.049
		c0.545,0.039,0.92,0.25,1.392,0.433c0.293,0.113,0.669,0.157,0.864,0.289c0.243,0.164,0.275,0.716,0.575,0.862
		c0.196,0.095,0.633-0.036,0.959,0c0.515,0.06,1.214,0.375,1.679,0.385c0.282,0.006,0.516-0.117,0.767-0.097
		c1.175,0.091,1.841,1.496,2.976,1.919c0.351,0.132,0.909,0.04,1.151,0.144c0.425,0.184,0.784,1.485,0.815,2.062
		c0.097,1.744-1.242,2.303-2.015,3.455c-0.161,0.241-0.251,0.623-0.48,0.96c-0.46,0.677-0.973,0.818-0.911,2.063
		c0.017,0.342,0.191,0.675,0.191,1.055c0,0.464-0.04,1.071-0.144,1.488c-0.079,0.318-0.342,0.575-0.384,0.864
		c-0.042,0.292,0.086,0.519,0.048,0.768c-0.041,0.276-0.318,0.666-0.528,1.054c-0.443,0.819-0.54,1.782-1.439,2.11
		c-0.528,0.194-1.244,0.086-1.822,0.288c-0.234,0.083-0.529,0.298-0.817,0.431c-0.835,0.389-2.025,0.913-2.255,1.775
		c-0.205,0.768,0.286,1.38,0.144,2.256c-0.149,0.261-0.35,0.521-0.576,0.815c-0.207,0.273-0.31,0.593-0.528,0.864
		c-0.288,0.361-0.737,0.521-0.911,1.008c-0.06,0.165-0.022,0.361-0.096,0.623c-0.028,0.097-0.205,0.247-0.289,0.431
		c-0.077,0.171-0.074,0.389-0.144,0.529c-0.219,0.442-0.871,1.449-1.344,1.583c-0.996,0.279-2.046-0.423-2.734-0.289
		c0.099,0.481,0.448,0.431,0.672,0.768c0.131,0.199,0.202,0.462,0.383,0.671c0.215,0.249,0.406,0.341,0.432,0.624
		c0.055,0.591-0.406,1.186-0.72,1.392c-0.287,0.188-0.883,0.298-1.392,0.383c-0.355,0.059-1.271,0.063-1.439,0.29
		c-0.247,0.333,0.131,1.156-0.047,1.486c-0.359,0.702-1.323-0.019-1.823,0.191c-0.043,0.362,0.091,0.742,0.384,0.911
		c0.302,0.177,0.76-0.053,0.959,0.289c-0.098,0.477-0.612,0.539-0.72,1.008c0.013,0.458,0.154,0.578,0.096,0.862
		c-0.125,0.617-1.083,0.591-1.055,1.248c0.041,0.983,1.885,0.58,1.919,1.536c0.019,0.579-0.528,0.585-0.719,1.15
		c-0.103,0.303,0.059,0.373,0,0.624c-0.08,0.341-0.48,0.439-0.48,0.815c-0.001,0.459,0.671,0.965,1.007,1.344
		c0.328,0.372,0.75,0.902,1.199,1.152c0.674,0.372,1.677,0.288,1.967,0.959c-0.092,0.404-0.481,0.512-0.864,0.623
		c-0.031,0-0.064,0-0.096,0c-0.13-0.079-0.59-0.079-0.72,0c-0.224,0-0.448,0-0.671,0c-0.642-0.296-1.421-0.487-2.207-0.767
		c-0.284-0.101-0.603-0.341-0.911-0.478c-0.231-0.106-0.492-0.147-0.672-0.241c-0.413-0.217-0.878-0.92-1.295-1.198
		c-0.253-0.171-0.651-0.26-0.815-0.433c-0.157-0.164-0.243-0.518-0.384-0.718c-0.155-0.22-0.44-0.381-0.624-0.624
		c-0.398-0.53-0.907-1.242-0.911-1.632c-0.004-0.384,0.366-0.644,0.24-1.006c-0.117-0.341-0.854-0.267-0.96-0.673
		c-0.064-0.245,0.212-0.658,0.191-1.006c-0.011-0.202-0.389-0.477-0.24-0.769c0.172-0.336,0.497,0.028,0.768-0.143
		c-0.203-0.693,0.016-1.807-0.672-2.016c-0.354,0.298,0.361,0.968-0.24,1.152c-0.58-0.258-0.446-1.022-0.576-1.583
		c-0.085-0.371-0.269-0.704-0.287-1.104c-0.01-0.21,0.082-0.453,0.047-0.67c-0.102-0.647-0.821-1.176-0.864-1.825
		c-0.019-0.312,0.192-0.577,0.24-0.911c0.034-0.227-0.031-0.481,0-0.72c0.043-0.305,0.211-0.585,0.24-0.864
		c0.057-0.527-0.001-1.431-0.096-1.872c-0.119-0.554-0.559-1.025-0.624-1.629c-0.023-0.219,0.073-0.584,0.048-0.864
		c-0.023-0.26-0.166-0.519-0.191-0.817c-0.024-0.274,0.068-0.534,0.096-0.864c0.051-0.602-0.118-1.273-0.096-1.872
		c0.006-0.176,0.098-0.307,0.096-0.479c-0.006-0.495-0.171-0.994-0.193-1.488c-0.038-0.911,0.101-1.557-0.047-2.399
		c-0.112-0.637-0.25-1.614-0.48-2.014c-0.257-0.447-1.266-1.205-1.775-1.489c-0.336-0.186-0.738-0.251-1.104-0.431
		c-0.781-0.383-2.296-1.193-2.639-1.966c-0.099-0.224-0.086-0.52-0.193-0.768c-0.209-0.492-0.648-0.917-0.96-1.392
		c-0.592-0.905-1.071-2.04-1.679-2.974c-0.308-0.475-0.574-1.013-0.911-1.391c-0.198-0.223-0.83-0.431-0.911-0.768
		c-0.108-0.443-0.436-1.053-0.384-1.391c0.069-0.459,0.961-0.83,0.96-1.247c-0.001-0.356-0.476-0.563-0.576-0.864
		c-0.242-0.734,0.142-1.165,0.431-1.776c0.096-0.2,0.189-0.523,0.288-0.671c0.176-0.264,0.533-0.338,0.767-0.624
		c0.131-0.16,0.213-0.493,0.384-0.72c0.365-0.485,0.954-0.666,1.104-1.104c0.122-0.356,0.194-2.138,0.047-2.734
		c-0.084-0.344-0.405-0.632-0.527-0.96c-0.217-0.579-0.268-1.211-0.864-1.199c-0.368,0.007-0.628,0.415-0.864,0.671
		c-0.057,0.341-0.027,0.711-0.384,0.815c-0.545,0.161-0.755-0.575-1.391-0.767c-0.253-0.077-0.656-0.073-0.815-0.144
		c-0.464-0.209-0.614-0.888-1.104-1.152c-0.41-0.219-0.76-0.143-1.008-0.48c-0.103-0.231-0.022-0.649-0.047-0.959
		c-0.526-0.308-0.972-1.455-1.584-1.726c-0.406-0.181-1.027-0.164-1.535-0.336c-0.239-0.081-0.423-0.185-0.672-0.24
		c-0.308-0.069-0.624-0.073-0.863-0.193c-0.95-0.471-1.462-1.999-2.639-1.966c-0.502,0.013-0.985,0.482-1.439,0.48
		c-0.452-0.002-1.209-0.361-1.776-0.624c-0.589-0.274-1.241-0.423-1.727-0.671c-0.392-0.201-0.665-0.568-1.008-0.721
		c-0.263-0.116-0.647-0.137-0.863-0.239c-0.306-0.145-0.626-0.456-1.008-0.721c-0.362-0.251-0.754-0.634-0.768-0.958
		c-0.016-0.376,0.345-0.695,0.384-1.056c0.123-1.142-0.718-1.964-1.248-2.639c-0.392-0.502-0.853-0.927-1.247-1.391
		c0.022-0.308,0.022-0.363,0-0.671c-0.298-0.289-0.549-0.718-0.864-1.152c-0.285-0.391-0.84-0.808-0.911-1.247
		c-0.089-0.539,0.205-1.013,0-1.536c-0.342-0.869-1.547-0.476-1.392,0.672c0.044,0.316,0.489,0.742,0.624,1.055
		c0.138,0.32,0.111,0.718,0.24,1.104c0.124,0.369,0.496,0.688,0.624,1.104c0.203,0.657,0.197,1.364,0.384,1.775
		c0.165,0.365,0.772,0.71,0.431,1.151c-0.454,0.094-0.629-0.36-0.911-0.624c-0.158-0.147-0.728-0.425-0.815-0.767
		c-0.073-0.282,0.179-0.663,0.096-1.008c-0.165-0.677-1.531-0.694-1.536-1.391c-0.002-0.437,0.572-0.489,0.577-0.912
		c0.004-0.463-0.631-0.854-0.768-1.247c-0.125-0.36-0.145-0.933-0.191-1.439c-0.045-0.475,0.013-1.025-0.097-1.392
		c-0.098-0.329-0.594-0.783-0.911-0.96c-0.421-0.234-0.754-0.137-0.959-0.48c-0.179-0.299-0.297-0.924-0.336-1.247
		c-0.069-0.577-0.016-1.208-0.048-1.823c-0.031-0.617-0.094-1.208,0-1.871c0.237-0.464,0.67-0.693,0.912-1.152
		c0.168-0.32,0.193-0.715,0.383-1.055c0.351-0.626,1.117-1.205,1.632-1.823c0.555-0.665,1.066-1.302,1.391-2.063
		c0.116-0.27,0.429-0.869,0.384-1.199c-0.063-0.462-0.933-0.842-0.864-1.391c0.044-0.34,0.528-0.335,0.672-0.671
		c0.074-0.173,0.141-0.656,0.144-0.864c0.007-0.463-0.237-0.945-0.144-1.439c0.079-0.422,0.706-0.592,0.384-1.055
		c-0.32-0.458-0.894,0.247-1.248-0.049c-0.325-0.273,0.065-0.602,0.096-1.104c0.012-0.2-0.116-0.428-0.096-0.575
		c0.029-0.214,0.447-0.576,0.336-0.72c-0.259-0.328-0.55-1.162-1.104-1.439c-0.704-0.354-1.466-0.115-2.446-0.288
		c-0.601-0.106-0.886-0.668-1.439-0.623c-0.342,0.027-0.538,0.418-1.008,0.623c-0.465,0.203-1.073,0.134-1.535,0.24
		c-0.458,0.106-0.678,0.422-1.152,0.384c-0.395-0.03-0.397-0.386-0.862-0.431c-0.182-0.018-0.526,0.113-0.815,0.144
		c-0.742,0.077-2.08,0.115-2.831-0.048c-0.687-0.149-1.111-0.367-1.871-0.72c-0.571-0.264-1.629-0.59-1.583-1.008
		c0.029-0.269,1.003-0.554,1.391-0.671c0.625-0.19,1.01-0.498,1.488-0.528c0.184-0.011,0.426,0.114,0.671,0.097
		c0.246-0.018,0.549-0.245,0.864-0.289c0.67-0.093,1.615,0.034,1.535-0.624c-0.509-0.402-2.584,0.298-2.639-0.576
		c-0.033-0.528,0.788-0.688,1.392-0.815c0.55-0.116,1.385-0.313,1.871-0.288c0.548,0.028,1.268,0.641,1.583-0.047
		c0.153-0.489-0.187-0.9-0.288-1.296c0.407-0.562,1.157-0.492,1.728-0.575c0.652-0.096,1.184-0.212,1.823-0.48
		c0.561-0.235,1.157-0.393,1.822-0.48c0.652-0.085,1.284-0.331,1.872-0.384c0.483-0.044,0.927-0.005,1.391-0.096
		c0.411-0.08,0.845-0.308,1.296-0.287c0.302,0.013,0.56,0.234,0.863,0.287c0.285,0.05,0.611-0.015,0.912,0.048
		c0.231,0.048,0.44,0.205,0.671,0.24c0.363,0.055,0.753-0.051,1.104,0c0.322,0.046,0.596,0.247,0.911,0.287
		c0.739,0.096,1.585-0.039,2.303,0.097c0.272,0.051,0.518,0.185,0.815,0.24c0.281,0.051,0.59-0.007,0.864,0.047
		c0.381,0.076,0.7,0.437,1.104,0.48c0.743,0.077,1.576-0.322,2.35-0.384c0.561-0.044,1.139,0.023,1.728-0.096
		c0.535-0.108,1.054-0.315,1.535-0.336c0.261-0.011,0.481,0.08,0.719,0.048c0.248-0.034,0.547-0.332,0.815-0.288
		c0.357,0.057,0.294,0.509,0.672,0.624c0.418-0.217,0.835,0.015,1.295,0c0.448-0.016,0.849-0.222,1.344-0.144
		c0.873,0.137,2.094,0.992,2.781,0.528c0.173-0.117,0.132-0.32,0.289-0.624c0.212-0.413,0.63-0.899,0.528-1.488
		c-0.962,0.016-1.88,0.486-2.975,0.528c-1.106-0.693,0.296-1.123,1.104-1.439c0.666-0.262,1.193-0.842,2.016-0.96
		c0.671-0.097,1.409,0.148,2.206,0.24c0.465,0.053,0.93-0.033,1.199,0.047c0.471,0.142,0.714,0.608,1.104,0.72
		c0.168,0.048,0.444,0.044,0.671,0.097c0.431,0.099,0.818,0.327,1.248,0c0.338,0.061,0.378,0.42,0.72,0.48
		c0.318-0.172,0.564-0.609,1.055-0.72c0.213-0.048,0.437,0.036,0.671,0c0.391-0.063,0.912-0.593,1.152-0.097
		c-0.098,0.346-0.622,0.398-0.912,0.672c-0.258,0.243-0.655,0.802-0.623,1.055c0.057,0.458,0.743,0.281,0.767,0.864
		c-0.102,0.335-0.492,0.185-0.815,0.335c-0.296,0.137-0.406,0.42-0.72,0.48c-0.872,0.165-1.596-0.219-2.35-0.192
		c-0.035,0.327,0.373,0.517,0.575,0.623c0.684,0.36,1.242,0.31,2.206,0.289c0.494-0.011,1.063,0.148,1.488-0.144
		c0.269-0.184,0.254-0.59,0.48-0.815c0.271-0.27,0.897-0.545,1.295-0.48c0.218,0.036,0.524,0.296,0.528,0.48
		c0.007,0.436-0.617,0.297-0.624,0.768c0.406,0.243,1.478-0.266,1.535-0.672c0.041-0.296-0.349-0.467-0.336-0.767
		c0.023-0.503,0.706-0.494,0.624-1.008c-0.33-0.259-0.674,0.056-1.008,0c-0.471-0.079-0.895-0.643-1.104-1.008
		c0.208-0.258,0.645-0.086,0.96-0.047c0.353-0.488,1.009-0.678,1.919-0.768c0.323-0.031,0.755-0.16,0.912,0.144
		c0.078,0.454-0.672,0.727-0.528,1.248c0.646,0.161,0.858-0.71,1.392-1.056c0.235-0.153,0.572-0.254,0.911-0.383
		c0.296-0.113,0.622-0.391,0.864-0.384c0.265,0.007,0.313,0.225,0.576,0.335c0.236,0.099,0.545-0.068,0.624,0.24
		c-0.556,0.963-2.629,0.41-3.167,1.391c0.12,0.658-0.325,1.285,0.048,1.728c0.267,0.315,0.867,0.101,1.007,0.431
		c0.188,0.442-0.582,0.442-0.383,0.959c0.508,0.304,1.112-0.29,1.582-0.527c0.504-0.256,1.141-0.557,1.199-1.152
		c-0.253-0.487-1.198-0.11-1.342-0.623c-0.079-0.279,0.289-0.903,0.383-1.008c0.501-0.561,2.248-1.359,3.502-1.248
		c0.239,0.022,0.48,0.167,0.72,0.193c0.825,0.085,1.799-0.356,2.447,0c0.521-0.304,1.146,0.041,1.87-0.049
		c0.559,0.33,0.405,1.031,1.248,1.344c0.229,0.085,0.515,0.024,0.815,0.096c0.223,0.053,0.464,0.315,0.719,0.433
		c0.364,0.165,0.642,0.127,0.72,0.383c0.076,0.251-0.264,0.413-0.24,0.672c0.207,0.171,0.034,0.428,0.144,0.671
		c0.207,0.444,0.729,0.412,1.246,0.624c0.364,0.149,1.139,0.606,1.104,0.959c-0.023,0.237-0.728,0.654-0.959,0.768
		c-0.164,0.08-0.973,0.471-1.247,0.431c-0.453-0.067-0.63-0.984-1.248-0.96c-0.269,0.011-0.522,0.173-0.528,0.528
		c-0.01,0.63,0.705,0.654,0.72,1.199c0.019,0.652-0.356,0.697-0.911,1.102c-0.397-0.161-0.732-0.388-1.248-0.431
		c-0.307,0.365,0.504,0.495,0.24,0.959c-0.771,0.163-1.358-0.218-2.062-0.431c-0.22-0.067-0.538-0.04-0.72-0.144
		c-0.273-0.157-0.352-0.624-0.577-0.864c-0.259-0.279-0.777-0.674-1.2-0.671c-0.592,0.001-1.45,0.738-1.919,0.047
		c0.325-1.099,1.863-0.283,2.878-0.671c0.378-0.144,0.508-0.544,0.817-0.72c0.62-0.354,1.628-0.403,1.535-1.103
		c-0.047-0.353-0.54-0.348-0.815-0.528c-0.376-0.245-0.663-1.109-1.199-1.151c-0.276-0.022-0.475,0.212-0.768,0.24
		c-0.62,0.058-1.311-0.25-1.871,0c-0.26,0.149-0.085,0.388-0.288,0.671c-0.167,0.232-0.562,0.298-0.72,0.528
		c-0.184,0.27-0.147,0.606-0.384,0.815c-0.394,0.349-1.227,0.405-1.726,0.576c-0.223,0.076-0.504,0.338-0.72,0.337
		c-0.396-0.002-0.566-0.533-1.008-0.337c-0.039,0.514,0.543,0.722,0.911,0.959c0.399,0.257,0.818,0.513,0.96,0.959
		c-0.39,0.829-1.013-0.044-1.631-0.047c-0.681-0.005-1.674,1.296-2.255,0.24c0.144-0.56,0.761-0.647,0.911-1.199
		c-0.677,0.115-1.267,0.686-2.063,0.864c-0.334,0.074-0.66,0.056-0.96,0.143c-0.574,0.169-0.975,0.593-1.582,0.817
		c-0.238,0.087-0.521,0.061-0.768,0.143c-0.579,0.194-1.273,0.54-1.87,0.864c-0.611,0.331-1.3,0.679-1.679,1.008
		c-0.205,0.177-0.738,0.807-0.72,1.007c0.024,0.286,0.562,0.38,0.575,0.672c-0.012,0.177-0.311,0.559-0.096,0.815
		c0.196,0.234,0.59,0.045,1.007,0.096c0.733,0.091,1.213,0.697,1.775,1.008c0.425,0.235,1.056,0.515,1.536,0.575
		c0.659,0.082,1.397-0.193,1.486,0.336c0.087,0.507-0.62,0.689-0.671,1.008c0.355,0.469-0.241,0.693-0.24,1.104
		c0.001,0.333,0.41,0.832,0.767,0.863c0.484,0.041,1.191-0.476,1.392-0.959c0.239-0.576,0.137-1.356,0.575-1.775
		c2.235,0.062,4.126-1.015,3.982-3.31c-0.015-0.227-0.143-0.518-0.096-0.768c0.07-0.371,0.707-0.682,0.623-1.151
		c0.626-0.193,0.6-1.197,1.248-1.344c0.543-0.122,1.157,0.384,1.87,0.335c0.233-0.016,0.534-0.224,0.768-0.191
		c0.469,0.065,0.751,0.643,1.104,0.911c0.311,0.239,0.64,0.162,0.72,0.48c-0.093,0.538-0.471,0.551-0.433,1.055
		c0.035,0.44,0.492,0.773,0.72,0.817c0.35,0.065,0.85-0.122,1.199-0.288c0.642-0.304,1.192-1.22,1.728-1.104
		c0.423,0.092,0.753,1.436,0.815,1.919c0.067,0.518-0.07,0.915-0.047,1.392c0.062,0.809,1.081,0.727,1.582,1.151
		c0.151,0.128,0.211,0.457,0.337,0.624c0.243,0.325,0.538,0.325,0.576,0.671c0.09,0.829-0.751,0.899-0.672,1.823
		c-0.173,0.359-0.611,0.337-0.576,0.815c0.056,0.757,1.144,0.177,1.439,0.768c0.16,0.318-0.027,0.554-0.144,1.007
		c0.372,0.443,0.369,1.151-0.287,1.152C190.848,144.607,190.738,144.178,190.334,144.079z M138.474,142.832
		c0.227-0.232-0.096-0.724-0.433-0.528C138.008,142.479,138.103,142.903,138.474,142.832z M171.961,147.197
		c-0.2-0.195-0.852-0.139-1.296-0.096c-0.314,0.032-0.687,0.098-0.72,0.336C170.444,147.666,171.804,147.831,171.961,147.197z
		 M169.465,146.382c0.377-0.297,0.21-0.903-0.191-1.008c-0.157-0.041-0.367,0.116-0.624,0.097c-0.271-0.02-0.543-0.269-0.767-0.288
		c-0.383-0.033-0.772,0.156-0.912,0.336c-0.015,0.287,0.211,0.333,0.193,0.624c-0.466,0.333-0.219,1.448,0.24,1.488
		c0.487,0.043,0.739-1.232,1.391-1.343C169.03,146.245,169.151,146.42,169.465,146.382z M168.794,148.301
		c-0.682-0.242-1.312,0.165-1.87,0.24c-0.333,0.045-0.94-0.068-0.864,0.431c0.062,0.407,0.691,0.259,1.055,0.144
		C167.873,148.876,168.352,148.67,168.794,148.301z M166.683,144.654c0.956-0.407-0.189-1.661-0.624-1.775
		c-0.778-0.203-1.884,0.571-2.783,0.816c-0.506,0.138-0.988,0.15-1.104,0.577c0.454,0.751,1.352-0.165,2.015-0.048
		c0.336,0.059,0.532,0.518,0.864,0.576C165.278,144.837,166.593,144.693,166.683,144.654z M166.011,145.422
		c-0.199-0.234-1.275,0.028-1.583,0.24c-0.212,0.147-0.356,0.504-0.575,0.768c-0.227,0.273-0.48,0.483-0.671,0.72
		c-0.173,0.213-1.145,1.615-0.384,1.775c0.325,0.068,0.992-0.606,1.055-0.864c0.217-0.88,0.613-1.507,1.295-1.919
		C165.542,145.903,165.947,145.933,166.011,145.422z M160.014,140.049c0.535-0.019,0.898-1.601,0-1.392
		C159.413,138.798,159.268,140.076,160.014,140.049z M157.424,176.031c0.024-0.072,0.07-0.121,0.096-0.193
		C157.374,175.361,156.914,176.013,157.424,176.031z M137.13,135.875c0.011-0.091-0.055-0.106-0.047-0.193
		c-0.147-0.001-0.316-0.028-0.289,0.144C136.863,135.965,137.049,135.99,137.13,135.875z M187.553,128.342
		c0.236,0.029,0.369-0.046,0.336-0.287C187.675,127.905,187.364,128.102,187.553,128.342z M182.036,123.642
		c-0.062-0.067-0.227-0.067-0.289,0c0,0.063,0,0.127,0,0.191C181.951,123.877,181.988,123.754,182.036,123.642z M163.805,127.336
		c0.16-0.103,0.405-0.242,0.287-0.48c-0.53-0.248-1.425-0.059-2.206-0.144c-0.443-0.626-1.185-0.723-1.248,0.288
		C161.531,127.725,162.883,126.662,163.805,127.336z M155.217,132.277c0.273-0.094,0.651-0.046,0.719-0.337
		c-0.224-0.179-0.454-0.422-0.719-0.431c-0.348-0.012-0.515,0.296-0.864,0.48c-0.406,0.214-0.968,0.267-1.007,0.624
		C154.089,132.758,154.757,132.435,155.217,132.277z M154.977,128.822c0.307-0.052,0.622,0.086,0.817-0.191
		c-0.229-1.056-1.69-0.411-2.543-0.336c-0.179,0.301-0.419,0.541-0.48,0.96C153.432,129.422,154.23,128.949,154.977,128.822z
		 M169.369,177.854c0.379-0.062,0.269-0.933-0.191-0.721C168.83,177.294,169.011,177.911,169.369,177.854z"/>
	<path style="fill:#2D93BA;" d="M137.083,135.683c-0.007,0.086,0.058,0.102,0.047,0.193c-0.081,0.114-0.267,0.09-0.336-0.048
		C136.767,135.655,136.936,135.682,137.083,135.683z"/>
	<path style="fill:#2D93BA;" d="M135.644,138.514c-0.102,0.314-0.379,0.452-0.672,0.575c-0.092-0.069-0.172-0.149-0.24-0.24
		C134.752,138.394,135.4,138.059,135.644,138.514z"/>
</g>
<ellipse style="fill:#E56353;" cx="342.44" cy="143.41" rx="22.554" ry="22.523"/>
<ellipse style="fill:#FCD462;" cx="313.04" cy="143.41" rx="22.554" ry="22.523"/>
<g>
	<rect x="126.89" y="197.67" style="fill:#FFFFFF;" width="73.33" height="8.96"/>
	<rect x="126.89" y="256.61" style="fill:#FFFFFF;" width="37.31" height="8.96"/>
	<rect x="194.19" y="256.67" style="fill:#FFFFFF;" width="37.31" height="8.96"/>
	<rect x="258.51" y="256.72" style="fill:#FFFFFF;" width="37.31" height="8.96"/>
	<rect x="325.79" y="256.72" style="fill:#FFFFFF;" width="37.31" height="8.96"/>
	<rect x="126.89" y="229.83" style="fill:#FFFFFF;" width="110.19" height="8.96"/>
</g>
<path style="fill:#FCD462;" d="M164.787,127.649h-37.1c-2.041,0-3.695,1.652-3.695,3.69v37.047c0,2.038,1.654,3.69,3.695,3.69h37.1
	c2.04,0,3.695-1.652,3.695-3.69v-37.047C168.482,129.301,166.827,127.649,164.787,127.649z"/>
<path style="fill:#DC8744;" d="M168.481,142.189v-3.861h-10.709v-10.71h-3.861v10.71h-15.347v-10.71h-3.861v10.71h-10.71v3.861
	h10.71v15.346h-10.71v3.861h10.71v10.71h3.861v-10.71h15.347v10.71h3.861v-10.71h10.709v-3.861h-10.709v-15.346L168.481,142.189
	L168.481,142.189z M153.911,157.535h-15.347v-15.346h15.347V157.535z"/>
<polygon style="fill:#EBF0F3;" points="174.971,332.561 177.248,340.064 184.733,337.727 187.011,345.231 194.496,342.893 
	196.773,350.397 204.258,348.059 206.536,355.563 214.021,353.226 216.298,360.729 223.783,358.391 226.061,365.895 
	233.546,363.558 235.824,371.061 243.308,368.724 245.586,376.228 253.071,373.89 255.349,381.394 262.834,379.056 265.111,386.56 
	344.608,236.333 246.983,184.672 167.486,334.899 "/>
<g>
	
		<rect x="186.182" y="322.29" transform="matrix(-0.8839 -0.4677 0.4677 -0.8839 247.0838 710.8668)" style="fill:#D5D6DB;" width="51.201" height="4.946"/>
	
		<rect x="193.835" y="308.634" transform="matrix(-0.8839 -0.4677 0.4677 -0.8839 273.1945 690.0367)" style="fill:#D5D6DB;" width="56.833" height="4.946"/>
	
		<rect x="202.745" y="289.511" transform="matrix(-0.8839 -0.4677 0.4677 -0.8839 282.0188 653.9822)" style="fill:#D5D6DB;" width="38.886" height="4.946"/>
</g>
<g>
	
		<rect x="211.224" y="273.512" transform="matrix(-0.8839 -0.4677 0.4677 -0.8839 305.4745 627.8067)" style="fill:#27A2DB;" width="38.886" height="4.946"/>
	
		<rect x="278.12" y="303.502" transform="matrix(-0.8839 -0.4677 0.4677 -0.8839 398.1964 710.8061)" style="fill:#27A2DB;" width="18.422" height="4.946"/>
</g>
<g>
	
		<rect x="269.677" y="319.525" transform="matrix(-0.8839 -0.4677 0.4677 -0.8839 374.7977 737.0425)" style="fill:#D5D6DB;" width="18.422" height="4.946"/>
	
		<rect x="261.79" y="334.451" transform="matrix(-0.8839 -0.4677 0.4677 -0.8839 352.9588 761.4737)" style="fill:#D5D6DB;" width="18.422" height="4.946"/>
	
		<rect x="253.859" y="349.406" transform="matrix(-0.8839 -0.4677 0.4677 -0.8839 331.0223 785.9386)" style="fill:#D5D6DB;" width="18.422" height="4.946"/>
	
		<rect x="220.296" y="257.304" transform="matrix(-0.8839 -0.4677 0.4677 -0.8839 337.2155 603.2703)" style="fill:#D5D6DB;" width="46.391" height="4.946"/>
</g>
<rect x="225.238" y="253.814" transform="matrix(-0.8839 -0.4677 0.4677 -0.8839 391.8445 609.8535)" style="fill:#44C4A1;" width="92.771" height="4.946"/>
<ellipse style="fill:#E56353;" cx="282.73" cy="235.19" rx="13" ry="13"/>
<g>
</g>
<g>
</g>
<g>
</g>
<g>
</g>
<g>
</g>
<g>
</g>
<g>
</g>
<g>
</g>
<g>
</g>
<g>
</g>
<g>
</g>
<g>
</g>
<g>
</g>
<g>
</g>
<g>
</g>
</svg>
