<?xml version="1.0" encoding="iso-8859-1"?>
<!-- Generator: Adobe Illustrator 19.0.0, SVG Export Plug-In . SVG Version: 6.00 Build 0)  -->
<svg xmlns="http://www.w3.org/2000/svg" xmlns:xlink="http://www.w3.org/1999/xlink" version="1.1" id="Capa_1" x="0px" y="0px" viewBox="0 0 512 512" style="enable-background:new 0 0 512 512;" xml:space="preserve" width="512px" height="512px">
<g>
	<g>
		<path d="M318.337,0H193.663v65.453H36.15V174.6h29.318L98.242,512h315.516l32.774-337.4h29.318V65.453H318.337V0z M223.663,30    h64.674v35.453h-64.674V30z M386.531,482H125.469l-29.86-307.4H416.39L386.531,482z M445.85,95.453V144.6H66.15V95.453H445.85z" fill="#5B7DA4"/>
	</g>
</g>
<g>
	<g>
		<rect x="241" y="233" width="30" height="190.67" fill="#5B7DA4"/>
	</g>
</g>
<g>
	<g>
		<polygon points="321.225,233 312.291,423.667 342.323,423.667 351.258,233   " fill="#5B7DA4"/>
	</g>
</g>
<g>
	<g>
		<polygon points="190.775,233 160.742,233 169.676,423.667 199.709,423.667   " fill="#5B7DA4"/>
	</g>
</g>
<g>
</g>
<g>
</g>
<g>
</g>
<g>
</g>
<g>
</g>
<g>
</g>
<g>
</g>
<g>
</g>
<g>
</g>
<g>
</g>
<g>
</g>
<g>
</g>
<g>
</g>
<g>
</g>
<g>
</g>
</svg>
