<?xml version="1.0" encoding="iso-8859-1"?>
<!-- Generator: Adobe Illustrator 19.0.0, SVG Export Plug-In . SVG Version: 6.00 Build 0)  -->
<svg version="1.1" id="Layer_1" xmlns="http://www.w3.org/2000/svg" xmlns:xlink="http://www.w3.org/1999/xlink" x="0px" y="0px"
	 viewBox="0 0 512 512" style="enable-background:new 0 0 512 512;" xml:space="preserve">
<circle style="fill:#FFEDB5;" cx="256" cy="256" r="256"/>
<path style="fill:#FEE187;" d="M203.709,209.455l-95.76,3.672l39.286,39.288l-67.413-1.333l32.856,32.497l-60.53,5.822
	l222.332,221.93c112.19-8.006,204.371-88.298,230.243-194.565L374.568,186.611l-5.549,7.589l-27.686-27.684L203.709,209.455z"/>
<g>
	<path style="fill:#E09112;" d="M170.667,253.845H85.333c-3.808,0-6.896-3.088-6.896-6.896s3.088-6.896,6.896-6.896h85.333
		c3.808,0,6.896,3.088,6.896,6.896S174.475,253.845,170.667,253.845z"/>
	<path style="fill:#E09112;" d="M199.111,216.35h-85.333c-3.808,0-6.896-3.088-6.896-6.896s3.088-6.896,6.896-6.896h85.333
		c3.808,0,6.896,3.088,6.896,6.896S202.919,216.35,199.111,216.35z"/>
	<path style="fill:#E09112;" d="M142.222,291.34H56.889c-3.808,0-6.896-3.088-6.896-6.896s3.088-6.896,6.896-6.896h85.333
		c3.808,0,6.896,3.087,6.896,6.896S146.03,291.34,142.222,291.34z"/>
</g>
<path style="fill:#71E2EF;" d="M390.896,300.297h-89.571V186.611h59.614c6.029,0,11.18,4.343,12.2,10.283L390.896,300.297z"/>
<path style="fill:#38C6D9;" d="M373.139,196.896c-1.021-5.941-6.172-10.283-12.2-10.283h-15.008v113.686h44.965L373.139,196.896z"/>
<path style="fill:#FF7F4F;" d="M398.055,306.331H295.293V180.577h65.648c8.994,0,16.625,6.432,18.146,15.296L398.055,306.331z
	 M307.359,294.264h76.379l-16.544-96.347c-0.526-3.055-3.155-5.273-6.254-5.273h-53.581V294.264z"/>
<path style="fill:#D35933;" d="M379.087,195.874c-1.522-8.864-9.154-15.296-18.146-15.296h-15.008v12.067h15.008
	c3.1,0,5.729,2.217,6.254,5.273l16.544,96.347h-37.807v12.067h52.122L379.087,195.874z"/>
<g>
	<path style="fill:#B54324;" d="M397.771,318.097H293.845v-75.792h103.926c5.391,0,9.761,4.37,9.761,9.761v56.27
		C407.53,313.727,403.161,318.097,397.771,318.097z"/>
	<path style="fill:#B54324;" d="M397.771,242.307h-51.838v75.792h51.838c5.391,0,9.761-4.37,9.761-9.761v-56.27
		C407.53,246.677,403.161,242.307,397.771,242.307z"/>
</g>
<polygon style="fill:#C92F00;" points="319.124,318.097 129.648,318.097 157.737,166.516 341.333,166.516 "/>
<polygon style="fill:#930000;" points="341.333,166.516 237.613,166.516 237.613,318.097 319.124,318.097 "/>
<circle style="fill:#59595B;" cx="191.94" cy="318.095" r="37.895"/>
<path style="fill:#272525;" d="M191.933,280.202c20.928,0,37.895,16.967,37.895,37.895c0,20.928-16.967,37.895-37.895,37.895
	V280.202L191.933,280.202z"/>
<circle style="fill:#EAA22F;" cx="191.94" cy="318.095" r="21.818"/>
<path style="fill:#E09112;" d="M191.933,296.279c12.05,0,21.818,9.768,21.818,21.818s-9.768,21.818-21.818,21.818V296.279z"/>
<circle style="fill:#59595B;" cx="343.505" cy="318.095" r="37.895"/>
<path style="fill:#272525;" d="M343.514,280.202c20.928,0,37.895,16.967,37.895,37.895c0,20.928-16.967,37.895-37.895,37.895
	V280.202z"/>
<circle style="fill:#EAA22F;" cx="343.505" cy="318.095" r="21.818"/>
<path style="fill:#E09112;" d="M343.514,296.279c12.05,0,21.818,9.768,21.818,21.818s-9.769,21.818-21.818,21.818V296.279z"/>
<g>
</g>
<g>
</g>
<g>
</g>
<g>
</g>
<g>
</g>
<g>
</g>
<g>
</g>
<g>
</g>
<g>
</g>
<g>
</g>
<g>
</g>
<g>
</g>
<g>
</g>
<g>
</g>
<g>
</g>
</svg>
