<?xml version="1.0" encoding="iso-8859-1"?>
<!-- Generator: Adobe Illustrator 19.0.0, SVG Export Plug-In . SVG Version: 6.00 Build 0)  -->
<svg version="1.1" id="Layer_1" xmlns="http://www.w3.org/2000/svg" xmlns:xlink="http://www.w3.org/1999/xlink" x="0px" y="0px"
	 viewBox="0 0 297.001 297.001" style="enable-background:new 0 0 297.001 297.001;" xml:space="preserve">
<g>
	<g>
		<g>
			<g>
				<g>
					<g>
						<circle style="fill:#5E4534;" cx="148.5" cy="148.501" r="148.5"/>
					</g>
				</g>
			</g>
		</g>
	</g>
	<path style="fill:#51392A;" d="M296.652,138.402l-64-64.001L64.333,222.586l74.081,74.067c3.334,0.224,6.696,0.348,10.087,0.348
		c82.014,0,148.5-66.486,148.5-148.5C297,145.105,296.876,141.74,296.652,138.402z"/>
	<g>
		<path style="fill:#FFCF6D;" d="M71.136,225.398h154.729c5.322,0,9.636-4.314,9.636-9.636V81.24c0-5.322-4.314-9.636-9.636-9.636
			H71.136c-5.322,0-9.636,4.314-9.636,9.636v134.522C61.5,221.083,65.814,225.398,71.136,225.398z"/>
	</g>
	<g>
		<path style="fill:#F9B65F;" d="M225.864,71.604h-77.697v153.794h77.697c5.322,0,9.636-4.314,9.636-9.636V81.24
			C235.5,75.918,231.186,71.604,225.864,71.604z"/>
	</g>
	<g>
		<rect x="132" y="71.604" style="fill:#B85627;" width="33" height="66"/>
	</g>
	<g>
		<rect x="148.167" y="71.604" style="fill:#A54520;" width="16.833" height="66"/>
	</g>
	<g>
		<circle style="fill:#27AE60;" cx="203.5" cy="214.501" r="40"/>
	</g>
	<g>
		<path style="fill:#FFFFFF;" d="M195.251,230.876c-1.023,0-2.048-0.391-2.828-1.172l-8.25-8.25c-1.563-1.562-1.563-4.095,0-5.656
			c1.561-1.563,4.096-1.563,5.656,0l5.422,5.421l21.922-21.921c1.561-1.563,4.096-1.563,5.656,0c1.563,1.562,1.563,4.095,0,5.656
			l-24.75,24.75C197.298,230.486,196.274,230.876,195.251,230.876z"/>
	</g>
</g>
<g>
</g>
<g>
</g>
<g>
</g>
<g>
</g>
<g>
</g>
<g>
</g>
<g>
</g>
<g>
</g>
<g>
</g>
<g>
</g>
<g>
</g>
<g>
</g>
<g>
</g>
<g>
</g>
<g>
</g>
</svg>
