<?xml version="1.0" encoding="iso-8859-1"?>
<!-- Generator: Adobe Illustrator 19.0.0, SVG Export Plug-In . SVG Version: 6.00 Build 0)  -->
<svg version="1.1" id="Capa_1" xmlns="http://www.w3.org/2000/svg" xmlns:xlink="http://www.w3.org/1999/xlink" x="0px" y="0px"
	 viewBox="0 0 512 512" style="enable-background:new 0 0 512 512;" xml:space="preserve">
<path style="fill:#303C42;" d="M424.991,111.936l0.155-0.092l-64-106.667C359.219,1.969,355.75,0,352,0H74.667
	c-3.75,0-7.219,1.969-9.146,5.177l-64,106.667l0.155,0.092C0.707,113.543,0,115.319,0,117.333V416
	c0,5.896,4.771,10.667,10.667,10.667H416c5.896,0,10.667-4.771,10.667-10.667V117.333
	C426.667,115.319,425.96,113.543,424.991,111.936z"/>
<polygon style="fill:#8A7067;" points="397.16,106.667 275.41,106.667 258.344,21.333 345.958,21.333 "/>
<rect x="170.56" y="128" style="fill:#FBC02D;" width="85.333" height="42.667"/>
<polygon style="fill:#FCCD57;" points="173.01,106.667 190.077,21.333 236.607,21.333 253.845,106.667 "/>
<polygon style="fill:#8A7067;" points="80.708,21.333 168.348,21.333 151.447,106.667 29.507,106.667 "/>
<path style="fill:#6D4C41;" d="M405.333,405.333h-384V128h128v53.333c0,5.896,4.771,10.667,10.667,10.667h106.667
	c5.896,0,10.667-4.771,10.667-10.667L277.165,128h128.168V405.333z"/>
<linearGradient id="SVGID_1_" gradientUnits="userSpaceOnUse" x1="-41.2031" y1="644.9844" x2="-25.7031" y2="629.4844" gradientTransform="matrix(21.3333 0 0 -21.3333 996.3333 13791.667)">
	<stop  offset="0" style="stop-color:#000000;stop-opacity:0.1"/>
	<stop  offset="1" style="stop-color:#000000;stop-opacity:0"/>
</linearGradient>
<path style="fill:url(#SVGID_1_);" d="M405.333,405.333V128H277.165l0.168,53.333c0,5.896-4.771,10.667-10.667,10.667H160
	c-5.896,0-10.667-4.771-10.667-10.667V128h-128l277.333,277.333H405.333z"/>
<path style="fill:#303C42;" d="M394.679,469.338c16.735,0,32.038-5.735,44.503-15.074l54.611,54.611
	c2.083,2.083,4.812,3.125,7.541,3.125c2.729,0,5.458-1.042,7.541-3.125c2.087-2.087,3.129-4.823,3.125-7.557
	c-0.004-2.724-1.046-5.446-3.125-7.525l-54.613-54.613c9.339-12.466,15.075-27.772,15.075-44.512
	c0-41.173-33.496-74.669-74.659-74.669C353.496,320,320,353.496,320,394.669S353.496,469.338,394.679,469.338z"/>
<path style="opacity:0.7;fill:#BBDEFB;enable-background:new    ;" d="M394.688,341.333c29.417,0,53.333,23.927,53.333,53.344
	c0,14.66-5.949,27.948-15.549,37.599c-0.035,0.034-0.083,0.044-0.117,0.078s-0.043,0.081-0.077,0.115
	c-9.648,9.602-22.931,15.552-37.59,15.552c-29.417,0-53.354-23.927-53.354-53.344C341.333,365.26,365.271,341.333,394.688,341.333z"
	/>
<path style="opacity:0.2;fill:#FFFFFF;enable-background:new    ;" d="M405.367,405.323c5.888,0,10.675,4.789,10.675,10.677
	c0,2.934-1.191,5.594-3.112,7.526l-0.023,0.016c-0.007,0.007-0.009,0.016-0.015,0.023c-1.931,1.922-4.59,3.113-7.524,3.113
	c-5.888,0-10.679-4.789-10.679-10.677S399.479,405.323,405.367,405.323z"/>
<path style="opacity:0.1;enable-background:new    ;" d="M352.021,405.323c0-29.417,23.938-53.344,53.354-53.344
	c11.93,0,22.839,4.074,31.73,10.714c-9.743-12.891-25.047-21.359-42.418-21.359c-29.417,0-53.354,23.927-53.354,53.344
	c0,17.479,8.569,32.88,21.599,42.615C356.18,428.355,352.021,417.361,352.021,405.323z"/>
<linearGradient id="SVGID_2_" gradientUnits="userSpaceOnUse" x1="-46.9486" y1="640.5624" x2="-20.2582" y2="628.1163" gradientTransform="matrix(21.3333 0 0 -21.3333 996.3333 13791.667)">
	<stop  offset="0" style="stop-color:#FFFFFF;stop-opacity:0.2"/>
	<stop  offset="1" style="stop-color:#FFFFFF;stop-opacity:0"/>
</linearGradient>
<path style="fill:url(#SVGID_2_);" d="M508.875,493.793l-54.612-54.612c9.339-12.466,15.076-27.772,15.076-44.512
	c0-29.68-17.536-55.155-42.672-67.185V117.333c0-2.014-0.707-3.79-1.676-5.397l0.155-0.092l-64-106.667
	C359.219,1.969,355.75,0,352,0H74.667c-3.75,0-7.219,1.969-9.146,5.177l-64,106.667l0.155,0.092C0.707,113.543,0,115.319,0,117.333
	V416c0,5.896,4.771,10.667,10.667,10.667h316.82c12.031,25.138,37.507,42.671,67.193,42.671c16.734,0,32.038-5.734,44.503-15.073
	l54.612,54.611c2.082,2.083,4.811,3.125,7.54,3.125s5.457-1.042,7.54-3.125c2.087-2.087,3.129-4.823,3.125-7.557
	C511.996,498.595,510.954,495.872,508.875,493.793z"/>
<g>
</g>
<g>
</g>
<g>
</g>
<g>
</g>
<g>
</g>
<g>
</g>
<g>
</g>
<g>
</g>
<g>
</g>
<g>
</g>
<g>
</g>
<g>
</g>
<g>
</g>
<g>
</g>
<g>
</g>
</svg>
