<?xml version="1.0" encoding="iso-8859-1"?>
<!-- Generator: Adobe Illustrator 19.0.0, SVG Export Plug-In . SVG Version: 6.00 Build 0)  -->
<svg version="1.1" id="Layer_1" xmlns="http://www.w3.org/2000/svg" xmlns:xlink="http://www.w3.org/1999/xlink" x="0px" y="0px"
	 viewBox="0 0 512 512" style="enable-background:new 0 0 512 512;" xml:space="preserve">
<path style="fill:#50B9FF;" d="M466.997,120.006H106.002c-24.814,0-44.999,20.186-44.999,44.999v301.995
	c0,24.814,20.186,44.999,44.999,44.999h360.994c24.814,0,44.999-20.186,44.999-44.999V165.006
	C511.996,140.192,491.811,120.006,466.997,120.006z"/>
<path style="fill:#48A7E6;" d="M466.997,120.006H286V512h180.997c24.814,0,44.999-20.186,44.999-44.999V165.006
	C511.996,140.192,491.811,120.006,466.997,120.006z"/>
<path style="fill:#5C5F66;" d="M363.298,512H208.701l32.445-229.113c1.056-7.392,7.387-12.883,14.855-12.883h60.006
	c7.463,0,13.791,5.488,14.846,12.876L363.298,512z"/>
<path style="fill:#53565C;" d="M316.006,270.004H286V512h77.299l-32.445-229.12C329.798,275.492,323.47,270.004,316.006,270.004z"/>
<path style="fill:#E6EEFF;" d="M406.998,60.007H46.003c-24.814,0-45.999,20.186-45.999,44.999v301.995
	c0,24.814,21.186,44.999,45.999,44.999h360.994c24.814,0,44.999-20.186,44.999-44.999V105.007
	C451.997,80.193,431.812,60.007,406.998,60.007z"/>
<path style="fill:#DAE2F2;" d="M406.998,60.007H226.001v391.994h180.997c24.814,0,44.999-20.186,44.999-44.999V105.007
	C451.997,80.193,431.812,60.007,406.998,60.007z"/>
<path style="fill:#7F838C;" d="M303.299,452.001H148.702l32.445-229.113c1.056-7.392,7.387-12.883,14.855-12.883h60.006
	c7.463,0,13.791,5.488,14.846,12.876L303.299,452.001z"/>
<path style="fill:#757982;" d="M256.007,210.005h-30.007v241.996h77.299l-32.445-229.12
	C269.799,215.493,263.471,210.005,256.007,210.005z"/>
<path style="fill:#5C5F66;" d="M226.624,141.583l-64.049,50.126l20.01,40.004c2.549,5.083,7.734,8.291,13.418,8.291h59.999
	c5.684,0,10.869-3.208,13.418-8.291l20.01-40.004L226.624,141.583z"/>
<path style="fill:#53565C;" d="M226.001,142.07v97.934h30c5.684,0,10.869-3.208,13.418-8.291l20.01-40.004l-62.804-50.126
	L226.001,142.07z"/>
<path style="fill:#E6EEFF;" d="M226.001,150.006c-4.717,0-9.17-2.227-12.012-6.006L123.99,24.002
	c-3.398-4.541-3.955-10.62-1.406-15.703s7.734-8.291,13.418-8.291h179.997c5.684,0,10.869,3.208,13.418,8.291
	c2.549,5.083,1.992,11.162-1.406,15.703L238.012,144C235.17,147.78,230.717,150.006,226.001,150.006z"/>
<path style="fill:#DAE2F2;" d="M315.999,0.008h-89.999v149.998c4.717,0,9.17-2.227,12.012-6.006l89.999-119.998
	c3.398-4.541,3.955-10.62,1.406-15.703C326.868,3.216,321.683,0.008,315.999,0.008z"/>
<path style="fill:#C4CAD9;" d="M359.416,68.298l-30-59.999c-4.849-9.729-18.562-11.431-25.43-2.285l-77.987,103.982L148.014,6.014
	c-6.809-9.067-20.539-7.528-25.43,2.285l-30,59.999c-2.109,4.219-2.109,9.199,0,13.418l59.999,119.998
	c4.592,9.123,16.772,11.148,24.023,3.896l49.394-49.394l49.394,49.394c7.222,7.222,19.412,5.264,24.023-3.896l59.999-119.998
	C361.525,77.497,361.525,72.517,359.416,68.298z"/>
<path style="fill:#B8BFCC;" d="M275.395,205.611c7.222,7.222,19.412,5.264,24.023-3.896l59.999-119.998
	c2.109-4.219,2.109-9.199,0-13.418l-30-59.999c-4.849-9.729-18.562-11.431-25.43-2.285l-77.987,103.982v46.22L275.395,205.611z"/>
<g>
</g>
<g>
</g>
<g>
</g>
<g>
</g>
<g>
</g>
<g>
</g>
<g>
</g>
<g>
</g>
<g>
</g>
<g>
</g>
<g>
</g>
<g>
</g>
<g>
</g>
<g>
</g>
<g>
</g>
</svg>
