<?xml version="1.0" encoding="iso-8859-1"?>
<!-- Generator: Adobe Illustrator 19.0.0, SVG Export Plug-In . SVG Version: 6.00 Build 0)  -->
<svg version="1.1" id="Layer_1" xmlns="http://www.w3.org/2000/svg" xmlns:xlink="http://www.w3.org/1999/xlink" x="0px" y="0px"
	 viewBox="0 0 512 512" style="enable-background:new 0 0 512 512;" xml:space="preserve">
<circle style="fill:#FF314F;" cx="256" cy="256" r="256"/>
<path style="fill:#A30F44;" d="M278.209,511.031C400.1,500.553,497.58,404.68,510.526,283.51L376.813,149.797l-90.09,129.088
	L160.942,393.764L278.209,511.031z"/>
<path style="fill:#FFFFFF;" d="M175.561,399.084h160.878c11.642,0,21.42-8.756,22.7-20.325l23.387-211.184
	c1.498-13.526-9.092-25.353-22.7-25.353H152.174c-13.609,0-24.198,11.826-22.7,25.353l23.387,211.184
	C154.141,390.328,163.919,399.084,175.561,399.084z"/>
<path style="fill:#D0D1D3;" d="M359.826,142.222h-104.4v256.862h81.013c11.642,0,21.42-8.756,22.7-20.325l23.387-211.184
	C384.024,154.048,373.434,142.222,359.826,142.222z"/>
<polygon style="fill:#386895;" points="286.915,372.198 256,390.63 225.085,372.198 234.301,197.222 277.699,197.222 "/>
<polygon style="fill:#273B7A;" points="286.915,372.198 277.699,197.222 255.426,197.222 255.426,390.289 256,390.63 "/>
<rect x="256" y="251.69" style="fill:#EAA22F;" width="33.047" height="10.774"/>
<polygon style="fill:#D0D1D3;" points="173.54,142.222 200.547,222.096 236.749,180.148 248.816,142.222 "/>
<polygon style="fill:#A6A8AA;" points="338.46,142.222 311.453,222.096 275.251,180.148 263.184,142.222 "/>
<path style="fill:#273B7A;" d="M272.684,199.111h-33.368c-3.024,0-5.566-2.27-5.908-5.275l-5.103-44.999
	c-0.4-3.525,2.358-6.615,5.908-6.615h43.573c3.55,0,6.308,3.089,5.908,6.615l-5.103,44.999
	C278.25,196.841,275.708,199.111,272.684,199.111z"/>
<path style="fill:#121149;" d="M277.787,142.222h-22.361v56.889h17.258c3.024,0,5.566-2.27,5.908-5.275l5.103-44.999
	C284.094,145.311,281.336,142.222,277.787,142.222z"/>
<g>
</g>
<g>
</g>
<g>
</g>
<g>
</g>
<g>
</g>
<g>
</g>
<g>
</g>
<g>
</g>
<g>
</g>
<g>
</g>
<g>
</g>
<g>
</g>
<g>
</g>
<g>
</g>
<g>
</g>
</svg>
