<?xml version="1.0" standalone="no"?>
<!DOCTYPE svg PUBLIC "-//W3C//DTD SVG 20010904//EN"
 "http://www.w3.org/TR/2001/REC-SVG-20010904/DTD/svg10.dtd">
<svg version="1.0" xmlns="http://www.w3.org/2000/svg"
 width="378.000000pt" height="214.000000pt" viewBox="0 0 378.000000 214.000000"
 preserveAspectRatio="xMidYMid meet">

<g transform="translate(0.000000,214.000000) scale(0.100000,-0.100000)"
fill="#000000" stroke="none">
<path d="M640 1910 c0 -5 -7 -10 -15 -10 -20 0 -65 -45 -65 -65 0 -8 -4 -15
-10 -15 -5 0 -10 -18 -10 -40 0 -22 5 -40 10 -40 6 0 10 -7 10 -15 0 -9 16
-31 35 -50 32 -33 38 -35 100 -35 37 0 65 4 65 10 0 6 7 10 16 10 20 0 44 24
44 44 0 9 5 16 10 16 6 0 10 25 10 55 0 50 -3 59 -35 90 -19 19 -41 35 -50 35
-8 0 -15 5 -15 10 0 6 -22 10 -50 10 -27 0 -50 -4 -50 -10z"/>
<path d="M2060 1810 c0 -5 -7 -10 -15 -10 -24 0 -65 -46 -65 -74 0 -13 -6 -27
-12 -30 -10 -5 -10 -7 0 -12 6 -3 12 -18 12 -33 0 -15 9 -33 20 -41 30 -22 25
-36 -30 -90 -27 -27 -50 -56 -50 -64 0 -9 -4 -16 -10 -16 -5 0 -10 -22 -10
-50 0 -27 5 -50 10 -50 6 0 10 -7 10 -15 0 -20 65 -85 85 -85 8 0 15 -4 15
-10 0 -6 27 -10 60 -10 33 0 60 4 60 10 0 6 13 10 28 10 16 0 34 8 42 20 21
29 57 25 91 -11 l28 -30 26 25 c28 28 33 56 10 56 -9 0 -27 11 -40 25 -25 24
-33 55 -15 55 6 0 10 14 10 30 0 17 5 30 10 30 6 0 10 14 10 30 0 28 -2 30
-40 30 -38 0 -40 -2 -40 -30 0 -23 -4 -30 -20 -30 -12 0 -20 7 -20 16 0 9 -13
29 -30 44 -16 15 -30 33 -30 40 0 6 18 29 40 50 22 21 40 46 40 54 0 9 5 16
10 16 6 0 10 14 10 30 0 17 -4 30 -10 30 -5 0 -10 7 -10 15 0 20 -45 65 -65
65 -8 0 -15 5 -15 10 0 6 -22 10 -50 10 -27 0 -50 -4 -50 -10z m60 -60 c0 -5
9 -10 20 -10 13 0 20 -7 20 -19 0 -11 6 -22 13 -25 10 -5 10 -7 0 -12 -7 -3
-13 -12 -13 -20 0 -8 -11 -26 -25 -40 l-25 -25 -25 25 c-19 19 -25 35 -25 71
0 38 3 45 20 45 11 0 20 5 20 10 0 6 5 10 10 10 6 0 10 -4 10 -10z m-20 -266
c0 -8 18 -33 40 -54 22 -21 40 -45 40 -53 0 -9 6 -17 12 -19 17 -6 -14 -38
-36 -38 -9 0 -16 -4 -16 -10 0 -5 -25 -10 -56 -10 -57 0 -84 14 -84 44 0 9 -4
16 -10 16 -5 0 -10 14 -10 30 0 17 5 30 10 30 6 0 10 7 10 15 0 9 10 27 23 40
26 28 77 34 77 9z"/>
<path d="M2640 1810 c0 -5 -13 -10 -30 -10 -16 0 -30 -4 -30 -10 0 -5 -7 -10
-15 -10 -20 0 -85 -65 -85 -85 0 -8 -4 -15 -10 -15 -5 0 -10 -13 -10 -30 0
-16 -4 -30 -10 -30 -6 0 -10 -40 -10 -100 0 -60 4 -100 10 -100 6 0 10 -13 10
-30 0 -16 5 -30 10 -30 6 0 10 -7 10 -15 0 -20 65 -85 85 -85 8 0 15 -4 15
-10 0 -5 9 -10 20 -10 11 0 20 -4 20 -10 0 -6 33 -10 80 -10 47 0 80 4 80 10
0 6 11 10 25 10 29 0 115 79 115 105 0 8 5 15 10 15 6 0 10 14 10 30 0 23 -4
30 -20 30 -11 0 -20 5 -20 10 0 6 -9 10 -20 10 -15 0 -20 -7 -20 -25 0 -17
-15 -41 -45 -70 -44 -45 -45 -45 -115 -45 -70 0 -71 0 -115 45 -30 29 -45 53
-45 70 0 14 -4 25 -10 25 -6 0 -10 33 -10 80 0 47 4 80 10 80 6 0 10 11 10 25
0 17 15 41 45 70 44 45 45 45 115 45 67 0 72 -2 105 -35 19 -19 35 -39 35 -45
0 -19 33 -47 38 -32 2 6 17 12 33 12 22 0 29 5 29 20 0 11 -4 20 -10 20 -5 0
-10 7 -10 15 0 20 -65 85 -85 85 -8 0 -15 5 -15 10 0 6 -9 10 -20 10 -11 0
-20 5 -20 10 0 6 -30 10 -70 10 -40 0 -70 -4 -70 -10z"/>
<path d="M1040 1524 c0 -298 1 -304 54 -304 l26 0 0 130 0 130 126 0 c136 0
154 6 154 54 l0 26 -126 0 c-150 0 -154 2 -154 90 0 89 1 90 174 90 l146 0 0
30 0 30 -200 0 -200 0 0 -276z"/>
<path d="M1520 1760 l0 -40 40 0 40 0 0 40 0 40 -40 0 -40 0 0 -40z"/>
<path d="M1723 1755 c-15 -16 -23 -37 -23 -60 0 -28 -4 -35 -20 -35 -17 0 -20
-7 -20 -40 0 -33 3 -40 20 -40 19 0 20 -7 20 -130 0 -80 4 -130 10 -130 6 0
10 -11 10 -25 0 -42 41 -75 95 -75 l45 0 0 40 c0 36 -2 40 -26 40 -48 0 -54
18 -54 154 l0 126 26 0 c26 0 54 20 54 40 0 20 -28 40 -54 40 -25 0 -26 2 -26
60 0 51 -3 60 -17 59 -10 0 -28 -11 -40 -24z"/>
<path d="M1533 1645 c-20 -22 -18 -391 1 -411 18 -18 34 -18 52 0 21 21 21
391 0 412 -18 18 -37 17 -53 -1z"/>
<path d="M3120 1650 c0 -5 -7 -10 -15 -10 -20 0 -85 -65 -85 -85 0 -8 -4 -15
-10 -15 -6 0 -10 -37 -10 -90 0 -53 4 -90 10 -90 6 0 10 -11 10 -25 0 -29 59
-95 85 -95 8 0 15 -4 15 -10 0 -6 30 -10 70 -10 40 0 70 4 70 10 0 6 7 10 15
10 9 0 36 20 60 45 36 36 45 51 45 80 0 19 5 35 10 35 6 0 10 23 10 50 0 28
-4 50 -10 50 -5 0 -10 13 -10 28 0 16 -8 34 -20 42 -11 8 -20 22 -20 32 0 11
-7 18 -20 18 -11 0 -20 5 -20 10 0 6 -9 10 -20 10 -11 0 -20 5 -20 10 0 6 -30
10 -70 10 -40 0 -70 -4 -70 -10z m100 -60 c0 -5 7 -10 15 -10 25 0 65 -46 65
-75 0 -14 5 -25 10 -25 6 0 10 -18 10 -40 0 -22 -4 -40 -10 -40 -5 0 -10 -11
-10 -25 0 -29 -40 -75 -65 -75 -8 0 -15 -4 -15 -10 0 -5 -9 -10 -20 -10 -11 0
-20 5 -20 10 0 6 -12 10 -26 10 -29 0 -54 21 -54 44 0 9 -4 16 -10 16 -6 0
-10 33 -10 80 0 47 4 80 10 80 6 0 10 7 10 16 0 20 24 44 44 44 9 0 16 5 16
10 0 6 14 10 30 10 17 0 30 -4 30 -10z"/>
<path d="M440 830 c0 -5 -9 -10 -20 -10 -11 0 -20 -4 -20 -10 0 -5 -7 -10 -16
-10 -8 0 -22 -6 -30 -14 -8 -8 -14 -22 -14 -30 0 -9 -4 -16 -10 -16 -6 0 -10
-27 -10 -60 0 -33 4 -60 10 -60 6 0 10 -7 10 -16 0 -20 24 -44 44 -44 9 0 16
-4 16 -10 0 -5 14 -10 30 -10 17 0 30 -4 30 -10 0 -5 14 -10 30 -10 17 0 30
-4 30 -10 0 -5 18 -10 40 -10 22 0 40 -4 40 -10 0 -5 7 -10 16 -10 27 0 44
-27 44 -70 0 -48 -17 -70 -54 -70 -14 0 -26 -4 -26 -10 0 -5 -22 -10 -50 -10
-27 0 -50 5 -50 10 0 6 -11 10 -25 10 -31 0 -75 41 -75 70 0 23 -22 50 -40 50
-22 0 -40 -29 -40 -64 0 -20 5 -36 10 -36 6 0 10 -7 10 -16 0 -19 24 -44 42
-44 8 0 20 -9 28 -20 11 -15 26 -20 62 -20 26 0 48 -4 48 -10 0 -5 14 -10 30
-10 17 0 30 5 30 10 0 6 18 10 40 10 22 0 40 5 40 10 0 6 7 10 15 10 20 0 65
45 65 65 0 8 5 15 10 15 6 0 10 28 10 65 0 62 -2 68 -35 100 -21 22 -44 35
-60 35 -14 0 -25 5 -25 10 0 6 -13 10 -30 10 -16 0 -30 5 -30 10 0 6 -18 10
-40 10 -22 0 -40 5 -40 10 0 6 -12 10 -26 10 -56 0 -74 71 -29 115 21 22 33
25 95 25 62 0 74 -3 95 -25 14 -13 25 -36 25 -50 0 -23 4 -25 40 -25 l40 0 0
40 c0 22 -4 40 -10 40 -5 0 -10 7 -10 16 0 20 -24 44 -44 44 -9 0 -16 5 -16
10 0 6 -13 10 -30 10 -16 0 -30 5 -30 10 0 6 -30 10 -70 10 -40 0 -70 -4 -70
-10z"/>
<path d="M1260 540 l0 -280 40 0 40 0 0 280 0 280 -40 0 -40 0 0 -280z"/>
<path d="M2100 780 l0 -40 40 0 40 0 0 40 0 40 -40 0 -40 0 0 -40z"/>
<path d="M1913 785 c-7 -8 -13 -35 -13 -60 0 -34 -4 -45 -16 -45 -20 0 -44
-24 -44 -44 0 -9 7 -16 16 -16 38 0 44 -23 44 -180 0 -178 1 -180 84 -180 56
0 56 0 56 30 0 27 -3 30 -30 30 l-30 0 0 150 c0 84 4 150 9 150 5 0 11 -6 13
-12 7 -21 38 17 38 46 0 22 -4 26 -30 26 l-30 0 0 60 c0 59 -1 60 -27 60 -16
-1 -34 -7 -40 -15z"/>
<path d="M920 670 c0 -5 -7 -10 -15 -10 -20 0 -65 -45 -65 -65 0 -8 -4 -15
-10 -15 -5 0 -10 -13 -10 -30 0 -16 -4 -30 -10 -30 -5 0 -10 -22 -10 -50 0
-27 5 -50 10 -50 6 0 10 -16 10 -35 0 -29 9 -44 45 -80 36 -36 51 -45 80 -45
19 0 35 -4 35 -10 0 -5 9 -10 20 -10 11 0 20 5 20 10 0 6 16 10 35 10 29 0 44
9 80 45 30 29 45 53 45 70 0 14 5 25 10 25 6 0 10 30 10 70 0 40 -4 70 -10 70
-5 0 -10 9 -10 20 0 11 -4 20 -10 20 -5 0 -10 7 -10 15 0 20 -45 65 -65 65 -8
0 -15 5 -15 10 0 6 -33 10 -80 10 -47 0 -80 -4 -80 -10z m120 -60 c0 -5 7 -10
16 -10 23 0 44 -25 44 -54 0 -14 5 -26 10 -26 6 0 10 -27 10 -60 0 -33 -4 -60
-10 -60 -5 0 -10 -7 -10 -15 0 -9 -11 -27 -25 -40 -19 -20 -34 -25 -75 -25
-41 0 -56 5 -75 25 -14 13 -25 36 -25 50 0 14 -4 25 -10 25 -5 0 -10 23 -10
50 0 28 5 50 10 50 6 0 10 9 10 20 0 11 5 20 10 20 6 0 10 9 10 20 0 13 7 20
20 20 11 0 20 5 20 10 0 6 18 10 40 10 22 0 40 -4 40 -10z"/>
<path d="M1440 510 c0 -107 4 -170 10 -170 6 0 10 -7 10 -15 0 -25 46 -65 75
-65 14 0 25 -4 25 -10 0 -5 9 -10 20 -10 11 0 20 5 20 10 0 6 14 10 30 10 17
0 30 5 30 10 0 6 9 10 20 10 11 0 20 5 20 10 0 6 5 10 10 10 6 0 10 -9 10 -20
0 -16 7 -20 30 -20 l30 0 0 210 0 210 -26 0 c-49 0 -54 -16 -54 -170 0 -136
-1 -142 -25 -165 -34 -35 -96 -35 -130 0 -24 24 -25 28 -25 180 l0 155 -40 0
-40 0 0 -170z"/>
<path d="M2100 470 l0 -210 40 0 40 0 0 210 0 210 -40 0 -40 0 0 -210z"/>
<path d="M2350 660 c-8 -11 -20 -20 -28 -20 -18 0 -42 -25 -42 -44 0 -9 -4
-16 -10 -16 -5 0 -10 -22 -10 -50 0 -27 -4 -50 -10 -50 -5 0 -10 -9 -10 -20 0
-11 5 -20 10 -20 6 0 10 -18 10 -40 0 -22 5 -40 10 -40 6 0 10 -7 10 -15 0 -9
16 -31 35 -50 26 -27 43 -35 70 -35 19 0 35 -4 35 -10 0 -5 9 -10 20 -10 11 0
20 5 20 10 0 6 16 10 35 10 29 0 44 9 80 45 25 24 45 51 45 60 0 8 5 15 10 15
6 0 10 33 10 80 0 47 -4 80 -10 80 -5 0 -10 11 -10 25 0 29 -59 95 -85 95 -8
0 -15 5 -15 10 0 6 -33 10 -78 10 -66 0 -80 -3 -92 -20z m130 -50 c0 -5 7 -10
16 -10 20 0 44 -24 44 -44 0 -9 5 -16 10 -16 6 0 10 -30 10 -70 0 -40 -4 -70
-10 -70 -5 0 -10 -7 -10 -15 0 -9 -11 -27 -25 -40 -19 -20 -34 -25 -75 -25
-64 0 -100 30 -100 85 0 19 -4 35 -10 35 -5 0 -10 9 -10 20 0 11 5 20 10 20 6
0 10 16 10 35 0 51 51 103 103 104 20 1 37 -3 37 -9z"/>
<path d="M2720 470 l0 -210 30 0 30 0 0 120 c0 73 4 120 10 120 6 0 10 16 10
36 0 38 18 64 44 64 9 0 16 5 16 10 0 6 14 10 30 10 17 0 30 -4 30 -10 0 -5 9
-10 20 -10 13 0 20 -7 20 -20 0 -11 5 -20 10 -20 6 0 10 -57 10 -150 l0 -150
40 0 40 0 0 160 c0 100 -4 160 -10 160 -5 0 -10 7 -10 15 0 9 -16 31 -35 50
-32 33 -38 35 -100 35 -37 0 -65 -4 -65 -10 0 -5 -9 -10 -20 -10 -11 0 -20 -4
-20 -10 0 -5 -4 -10 -10 -10 -5 0 -10 9 -10 20 0 16 -7 20 -30 20 l-30 0 0
-210z"/>
<path d="M3220 670 c0 -5 -7 -10 -15 -10 -9 0 -27 -11 -40 -25 -36 -35 -36
-115 0 -150 13 -14 36 -25 50 -25 14 0 25 -4 25 -10 0 -5 14 -10 30 -10 17 0
30 -4 30 -10 0 -5 12 -10 26 -10 31 0 54 -21 54 -50 0 -35 -24 -50 -80 -50
-41 0 -56 5 -75 25 -14 13 -25 31 -25 40 0 21 -47 20 -68 -2 -12 -12 -13 -18
-4 -21 6 -2 12 -12 12 -23 0 -10 5 -19 10 -19 6 0 10 -9 10 -20 0 -13 7 -20
20 -20 11 0 20 -4 20 -10 0 -5 18 -10 40 -10 22 0 40 -4 40 -10 0 -5 9 -10 20
-10 11 0 20 5 20 10 0 6 16 10 35 10 27 0 44 8 70 35 31 30 35 41 35 85 0 41
-5 56 -25 75 -13 14 -31 25 -40 25 -8 0 -15 5 -15 10 0 6 -13 10 -30 10 -16 0
-30 5 -30 10 0 6 -16 10 -35 10 -25 0 -44 8 -61 25 l-25 25 25 25 c37 37 99
35 136 -5 21 -23 37 -30 64 -30 20 0 36 5 36 10 0 6 -4 10 -10 10 -5 0 -10 7
-10 15 0 9 -16 31 -35 50 -33 34 -37 35 -110 35 -43 0 -75 -4 -75 -10z"/>
</g>
</svg>
