<svg height="464pt" viewBox="0 0 464 464.04099" width="464pt" xmlns="http://www.w3.org/2000/svg"><path d="m464.019531 232.039062c.023438 10.035157-.644531 20.058594-2 30-15.003906 115.570313-113.460937 202.042969-230 202-8.5.003907-16.992187-.476562-25.4375-1.4375-124.078125-13.6875-215.082031-123.101562-205.9375-247.59375 9.140625-124.496093 115.152344-219.4375 239.898438-214.851562 124.746093 4.585938 223.5 107.054688 223.476562 231.882812zm0 0" fill="#cd2a00"/><path d="m462.019531 262.039062c-15.003906 115.570313-113.460937 202.042969-230 202-8.5.003907-16.992187-.476562-25.4375-1.4375l-118.5625-118.5625 288-168zm0 0" fill="#b32500"/><path d="m168.019531 128.039062 64-40 64 40v8h-128zm0 0" fill="#78b9eb"/><path d="m232.019531 88.039062-52.398437 32h104.800781zm0 0" fill="#78b9eb"/><path d="m344.019531 156.519531v-36.480469h-224v36.480469l-32 19.519531 94.496094 57.753907 49.503906 30.246093 49.496094-30.246093 94.503906-57.753907zm0 0" fill="#bfab59"/><path d="m120.019531 120.039062h224v160h-224zm0 0" fill="#ffe477"/><g fill="#cc7400"><path d="m152.019531 144.039062h56v16h-56zm0 0"/><path d="m232.019531 144.039062h80v16h-80zm0 0"/><path d="m152.019531 176.039062h160v16h-160zm0 0"/></g><path d="m88.019531 176.039062v168l94.496094-110.246093zm0 0" fill="#78b9eb"/><path d="m232.019531 264.039062-49.503906-30.246093-94.496094 110.246093h288l-94.503906-110.246093zm0 0" fill="#69a2ce"/><path d="m376.019531 344.039062v-168l-94.503906 57.753907zm0 0" fill="#78b9eb"/></svg>