<?xml version="1.0" encoding="iso-8859-1"?>
<!-- Generator: Adobe Illustrator 19.0.0, SVG Export Plug-In . SVG Version: 6.00 Build 0)  -->
<svg version="1.1" id="Capa_1" xmlns="http://www.w3.org/2000/svg" xmlns:xlink="http://www.w3.org/1999/xlink" x="0px" y="0px"
	 viewBox="0 0 512 512" style="enable-background:new 0 0 512 512;" xml:space="preserve">
<circle style="fill:#B9EAFF;" cx="256" cy="256" r="256"/>
<path style="fill:#35CCFF;" d="M512,256c0-9.861-0.577-19.585-1.663-29.156L408.186,124.693l-274.704,92.704L83.82,352.802
	l22.141,22.204l-2.148,12.302l123.03,123.03C236.415,511.423,246.139,512,256,512C397.385,512,512,397.385,512,256z"/>
<rect x="103.81" y="124.69" style="fill:#333333;" width="304.37" height="77.21"/>
<rect x="255.67" y="124.69" style="fill:#1A1A1A;" width="152.52" height="77.21"/>
<rect x="353.99" y="149.19" style="fill:#8CC63F;" width="28.21" height="28.21"/>
<rect x="314.83" y="149.19" style="fill:#FFDC00;" width="28.21" height="28.21"/>
<rect x="103.81" y="217.4" style="fill:#333333;" width="304.37" height="77.21"/>
<rect x="255.67" y="217.4" style="fill:#1A1A1A;" width="152.52" height="77.21"/>
<rect x="353.99" y="241.9" style="fill:#8CC63F;" width="28.21" height="28.21"/>
<rect x="314.83" y="241.9" style="fill:#FFDC00;" width="28.21" height="28.21"/>
<rect x="103.81" y="310.1" style="fill:#333333;" width="304.37" height="77.21"/>
<rect x="255.67" y="310.1" style="fill:#1A1A1A;" width="152.52" height="77.21"/>
<rect x="353.99" y="334.6" style="fill:#8CC63F;" width="28.21" height="28.21"/>
<rect x="314.83" y="334.6" style="fill:#FFDC00;" width="28.21" height="28.21"/>
<rect x="188.964" y="358.287" transform="matrix(-0.7071 -0.7071 0.7071 -0.7071 152.6613 831.8074)" style="fill:#AE4E32;" width="119.279" height="52"/>
<rect x="225.94" y="332.759" transform="matrix(-0.7071 0.7071 -0.7071 -0.7071 687.9917 499.8215)" style="fill:#963722;" width="29.08" height="119.279"/>
<circle style="fill:#FFFFFF;" cx="148.5" cy="279.24" r="85.5"/>
<path style="fill:#E0E0E0;" d="M87.751,219.084C72.454,234.532,63,255.778,63,279.236c0,47.22,38.28,85.5,85.5,85.5
	c23.458,0,44.704-9.454,60.152-24.751L87.751,219.084z"/>
<path style="fill:#FF6838;" d="M148.5,377.236c-54.038,0-98-43.962-98-98s43.962-98,98-98s98,43.963,98,98
	S202.538,377.236,148.5,377.236z M148.5,206.236c-40.252,0-73,32.748-73,73s32.748,73,73,73s73-32.748,73-73
	S188.752,206.236,148.5,206.236z"/>
<path style="fill:#AE4E32;" d="M199.789,331.122c-13.194,13.043-31.314,21.114-51.289,21.114c-40.252,0-73-32.748-73-73
	c0-19.975,8.07-38.095,21.114-51.289l-17.673-17.673C61.371,227.995,50.5,252.369,50.5,279.236c0,54.037,43.962,98,98,98
	c26.867,0,51.241-10.871,68.962-28.441L199.789,331.122z"/>
<g>
</g>
<g>
</g>
<g>
</g>
<g>
</g>
<g>
</g>
<g>
</g>
<g>
</g>
<g>
</g>
<g>
</g>
<g>
</g>
<g>
</g>
<g>
</g>
<g>
</g>
<g>
</g>
<g>
</g>
</svg>
