<?xml version="1.0" encoding="iso-8859-1"?>
<!-- Generator: Adobe Illustrator 18.0.0, SVG Export Plug-In . SVG Version: 6.00 Build 0)  -->
<!DOCTYPE svg PUBLIC "-//W3C//DTD SVG 1.1//EN" "http://www.w3.org/Graphics/SVG/1.1/DTD/svg11.dtd">
<svg xmlns="http://www.w3.org/2000/svg" xmlns:xlink="http://www.w3.org/1999/xlink" version="1.1" id="Capa_1" x="0px" y="0px" viewBox="0 0 358.495 358.495" style="enable-background:new 0 0 358.495 358.495;" xml:space="preserve" width="512px" height="512px">
<path d="M223.708,98.336c0.885-0.593,1.805-1.162,2.8-1.678l5.743-3.051l-15.376-13.73l17.766-15.864l-5.797-3.003  c-10.949-5.672-14.865-16.208-19.012-27.363c-4.559-12.265-9.273-24.947-23.307-32.219L183.772,0l-50.072,44.715l5.797,3.003  c10.949,5.672,14.865,16.208,19.012,27.362c0.087,0.235,0.176,0.471,0.263,0.706c-0.909,2.256-1.757,4.534-2.599,6.798  c-2.075,5.583-4.093,11.011-6.964,15.751H63.635v25.316h18.42l14.457,152.583v0.132h0.013l7.781,82.127h149.885l7.781-82.127h0.013  v-0.132l14.457-152.583h18.418V98.336H223.708z M216.98,92.036c-2.539,1.9-4.689,4.021-6.555,6.301h-50.982  c1.99-4.096,3.59-8.379,5.165-12.616c3.796-10.211,7.398-19.905,16.382-25.822L216.98,92.036z M149.025,43.096l35.989-32.139  c8.983,5.918,12.586,15.612,16.383,25.825c3.918,10.542,7.952,21.392,17.919,28.85l-9.197,8.213l-27.888-24.903l-2.754,1.427  c-7.078,3.667-11.782,8.714-15.294,14.387C160.882,56.649,156.727,48.859,149.025,43.096z M198.025,123.653  c-3.461,9.173-7.181,17.676-15.347,23.055l-25.819-23.055H198.025z M206.219,127.424l-1.548,24.02h-13.319  C199.04,144.912,202.888,136.201,206.219,127.424z M174.469,151.444h-20.644l-1.26-19.56L174.469,151.444z M97.122,123.653h42.58  l1.789,27.791H99.755L97.122,123.653z M103.353,189.419l-2.556-26.975H142.2l1.736,26.975H103.353z M104.396,200.419h40.25  l1.737,26.973h-39.432L104.396,200.419z M107.993,238.391h39.098l1.737,26.977H110.55L107.993,238.391z M111.592,276.368h37.945  l1.737,26.975h-37.127L111.592,276.368z M117.952,343.495l-2.762-29.152h36.792l1.878,29.152H117.952z M192.303,343.495h-26.109  l-1.878-29.152h29.865L192.303,343.495z M194.889,303.342h-31.281l-1.737-26.975h34.756L194.889,303.342z M197.335,265.368h-36.174  l-1.736-26.977h39.646L197.335,265.368z M199.781,227.391h-41.064l-1.737-26.973h44.539L199.781,227.391z M202.226,189.419h-45.955  l-1.737-26.975h49.43L202.226,189.419z M240.544,343.495h-35.908l1.878-29.152h36.792L240.544,343.495z M244.349,303.342h-37.127  l1.737-26.975h37.945L244.349,303.342z M247.947,265.368h-38.278l1.737-26.977h39.098L247.947,265.368z M251.545,227.391h-39.432  l1.737-26.973h40.25L251.545,227.391z M255.144,189.419H214.56l1.736-26.975h41.403L255.144,189.419z M258.741,151.444h-41.736  l1.789-27.791h42.58L258.741,151.444z" fill="#18497D"/>
<g>
</g>
<g>
</g>
<g>
</g>
<g>
</g>
<g>
</g>
<g>
</g>
<g>
</g>
<g>
</g>
<g>
</g>
<g>
</g>
<g>
</g>
<g>
</g>
<g>
</g>
<g>
</g>
<g>
</g>
</svg>
